<svg xmlns="http://www.w3.org/2000/svg" xmlns:xlink="http://www.w3.org/1999/xlink" version="1.1" class="marks" width="742" height="384" viewBox="0 0 742 384"><rect width="742" height="384" fill="#fffff8"/><g fill="none" stroke-miterlimit="10" transform="translate(59,36)"><g class="mark-group role-frame root" role="graphics-object" aria-roledescription="group mark container"><g transform="translate(0,0)"><path class="background" aria-hidden="true" d="M0,0h0v300h0Z"/><g><g class="mark-group role-scope concat_0_group" role="graphics-object" aria-roledescription="group mark container"><g transform="translate(0,0)"><path class="background" aria-hidden="true" d="M0,0h300v300h-300Z"/><g><g class="mark-group role-axis" role="graphics-symbol" aria-roledescription="axis" aria-label="X-axis titled 'Date created' for a time scale with values from May 2020 to November 2022"><g transform="translate(0.5,300.5)"><path class="background" aria-hidden="true" d="M0,0h0v0h0Z" pointer-events="none"/><g><g class="mark-rule role-axis-tick" pointer-events="none"><line transform="translate(10,0)" x2="0" y2="5" stroke="#888" stroke-width="1" opacity="1"/><line transform="translate(40,0)" x2="0" y2="5" stroke="#888" stroke-width="1" opacity="1"/><line transform="translate(71,0)" x2="0" y2="5" stroke="#888" stroke-width="1" opacity="1"/><line transform="translate(100,0)" x2="0" y2="5" stroke="#888" stroke-width="1" opacity="1"/><line transform="translate(130,0)" x2="0" y2="5" stroke="#888" stroke-width="1" opacity="1"/><line transform="translate(160,0)" x2="0" y2="5" stroke="#888" stroke-width="1" opacity="1"/><line transform="translate(190,0)" x2="0" y2="5" stroke="#888" stroke-width="1" opacity="1"/><line transform="translate(220,0)" x2="0" y2="5" stroke="#888" stroke-width="1" opacity="1"/><line transform="translate(250,0)" x2="0" y2="5" stroke="#888" stroke-width="1" opacity="1"/><line transform="translate(280,0)" x2="0" y2="5" stroke="#888" stroke-width="1" opacity="1"/></g><g class="mark-text role-axis-label" pointer-events="none"><text text-anchor="middle" transform="translate(10.076670317634173,18)" font-family="Vollkorn" font-size="14px" fill="#000" opacity="1">July 2020</text><text text-anchor="middle" transform="translate(40.30668127053669,18)" font-family="Vollkorn" font-size="14px" fill="#000" opacity="0">October 2020</text><text text-anchor="middle" transform="translate(70.5366922234392,18)" font-family="Vollkorn" font-size="14px" fill="#000" opacity="0">January 2021</text><text text-anchor="middle" transform="translate(100.10952902519168,18)" font-family="Vollkorn" font-size="14px" fill="#000" opacity="0">April 2021</text><text text-anchor="middle" transform="translate(130.01095290251916,18)" font-family="Vollkorn" font-size="14px" fill="#000" opacity="1">July 2021</text><text text-anchor="middle" transform="translate(160.24096385542168,18)" font-family="Vollkorn" font-size="14px" fill="#000" opacity="0">October 2021</text><text text-anchor="middle" transform="translate(190.4709748083242,18)" font-family="Vollkorn" font-size="14px" fill="#000" opacity="0">January 2022</text><text text-anchor="middle" transform="translate(220.0438116100767,18)" font-family="Vollkorn" font-size="14px" fill="#000" opacity="0">April 2022</text><text text-anchor="middle" transform="translate(249.94523548740415,18)" font-family="Vollkorn" font-size="14px" fill="#000" opacity="1">July 2022</text><text text-anchor="middle" transform="translate(280.1752464403067,18)" font-family="Vollkorn" font-size="14px" fill="#000" opacity="0">October 2022</text></g><g class="mark-rule role-axis-domain" pointer-events="none"><line transform="translate(0,0)" x2="300" y2="0" stroke="#888" stroke-width="1" opacity="1"/></g><g class="mark-text role-axis-title" pointer-events="none"><text text-anchor="middle" transform="translate(150,39)" font-family="Vollkorn" font-size="18px" font-weight="bold" fill="#000" opacity="1">Date created</text></g></g><path class="foreground" aria-hidden="true" d="" pointer-events="none" display="none"/></g></g><g class="mark-group role-axis" role="graphics-symbol" aria-roledescription="axis" aria-label="Y-axis titled 'Number of builds' for a linear scale with values from 0 to 240"><g transform="translate(0.5,0.5)"><path class="background" aria-hidden="true" d="M0,0h0v0h0Z" pointer-events="none"/><g><g class="mark-rule role-axis-tick" pointer-events="none"><line transform="translate(0,300)" x2="-5" y2="0" stroke="#888" stroke-width="1" opacity="1"/><line transform="translate(0,275)" x2="-5" y2="0" stroke="#888" stroke-width="1" opacity="1"/><line transform="translate(0,250)" x2="-5" y2="0" stroke="#888" stroke-width="1" opacity="1"/><line transform="translate(0,225)" x2="-5" y2="0" stroke="#888" stroke-width="1" opacity="1"/><line transform="translate(0,200)" x2="-5" y2="0" stroke="#888" stroke-width="1" opacity="1"/><line transform="translate(0,175)" x2="-5" y2="0" stroke="#888" stroke-width="1" opacity="1"/><line transform="translate(0,150)" x2="-5" y2="0" stroke="#888" stroke-width="1" opacity="1"/><line transform="translate(0,125)" x2="-5" y2="0" stroke="#888" stroke-width="1" opacity="1"/><line transform="translate(0,100)" x2="-5" y2="0" stroke="#888" stroke-width="1" opacity="1"/><line transform="translate(0,75)" x2="-5" y2="0" stroke="#888" stroke-width="1" opacity="1"/><line transform="translate(0,50)" x2="-5" y2="0" stroke="#888" stroke-width="1" opacity="1"/><line transform="translate(0,25)" x2="-5" y2="0" stroke="#888" stroke-width="1" opacity="1"/><line transform="translate(0,0)" x2="-5" y2="0" stroke="#888" stroke-width="1" opacity="1"/></g><g class="mark-text role-axis-label" pointer-events="none"><text text-anchor="end" transform="translate(-7,304)" font-family="Vollkorn" font-size="14px" fill="#000" opacity="1">0</text><text text-anchor="end" transform="translate(-7,279)" font-family="Vollkorn" font-size="14px" fill="#000" opacity="1">20</text><text text-anchor="end" transform="translate(-7,254)" font-family="Vollkorn" font-size="14px" fill="#000" opacity="1">40</text><text text-anchor="end" transform="translate(-7,229)" font-family="Vollkorn" font-size="14px" fill="#000" opacity="1">60</text><text text-anchor="end" transform="translate(-7,204.00000000000003)" font-family="Vollkorn" font-size="14px" fill="#000" opacity="1">80</text><text text-anchor="end" transform="translate(-7,178.99999999999997)" font-family="Vollkorn" font-size="14px" fill="#000" opacity="1">100</text><text text-anchor="end" transform="translate(-7,154)" font-family="Vollkorn" font-size="14px" fill="#000" opacity="1">120</text><text text-anchor="end" transform="translate(-7,129)" font-family="Vollkorn" font-size="14px" fill="#000" opacity="1">140</text><text text-anchor="end" transform="translate(-7,104.00000000000001)" font-family="Vollkorn" font-size="14px" fill="#000" opacity="1">160</text><text text-anchor="end" transform="translate(-7,79)" font-family="Vollkorn" font-size="14px" fill="#000" opacity="1">180</text><text text-anchor="end" transform="translate(-7,53.999999999999986)" font-family="Vollkorn" font-size="14px" fill="#000" opacity="1">200</text><text text-anchor="end" transform="translate(-7,29.00000000000001)" font-family="Vollkorn" font-size="14px" fill="#000" opacity="1">220</text><text text-anchor="end" transform="translate(-7,4)" font-family="Vollkorn" font-size="14px" fill="#000" opacity="1">240</text></g><g class="mark-rule role-axis-domain" pointer-events="none"><line transform="translate(0,300)" x2="0" y2="-300" stroke="#888" stroke-width="1" opacity="1"/></g><g class="mark-text role-axis-title" pointer-events="none"><text text-anchor="middle" transform="translate(-35.4859619140625,150) rotate(-90) translate(0,-4)" font-family="Vollkorn" font-size="18px" font-weight="bold" fill="#000" opacity="1">Number of builds</text></g></g><path class="foreground" aria-hidden="true" d="" pointer-events="none" display="none"/></g></g><g class="mark-group role-scope concat_0_layer_0_pathgroup" role="graphics-object" aria-roledescription="group mark container"><g transform="translate(0,0)"><path class="background" aria-hidden="true" d="M0,0h300v300h-300Z"/><g><g class="mark-line role-mark concat_0_layer_0_marks" role="graphics-object" aria-roledescription="line mark container"><path aria-label="primary: &quot;Thunderhead&quot; Heavy Autocannon; Date created: May 2020; Number of builds: 1" role="graphics-symbol" aria-roledescription="line mark" d="M0,298.75L30.230010952902518,282.5L40.08762322015334,276.25L50.27382256297919,285L60.13143483023001,276.25L70.31763417305585,258.75L80.50383351588171,276.25L89.70427163198248,266.25L99.89047097480832,266.25L109.74808324205915,267.5L119.934282584885,228.75L129.7918948521358,242.5L139.97809419496167,256.25L150.16429353778753,255L160.02190580503836,268.75L170.2081051478642,268.75L180.065717415115,251.25L190.25191675794088,255L200.4381161007667,220.00000000000003L209.63855421686748,229.99999999999997L219.8247535596933,246.25L229.68236582694414,250L239.86856516977,178.75L249.72617743702082,235L259.9123767798467,232.5L270.0985761226725,202.5L279.95618838992334,216.25L290.14238773274917,166.25L300,135" stroke="#dedede" stroke-width="2"/></g></g><path class="foreground" aria-hidden="true" d="" display="none"/></g><g transform="translate(0,0)"><path class="background" aria-hidden="true" d="M0,0h300v300h-300Z"/><g><g class="mark-line role-mark concat_0_layer_0_marks" role="graphics-object" aria-roledescription="line mark container"><path aria-label="primary: &quot;Warthog&quot; Auto 210; Date created: May 2020; Number of builds: 1" role="graphics-symbol" aria-roledescription="line mark" d="M0,298.75L30.230010952902518,280L40.08762322015334,287.5L50.27382256297919,278.75L60.13143483023001,275L70.31763417305585,272.5L80.50383351588171,261.25L89.70427163198248,250L99.89047097480832,251.25L109.74808324205915,250L119.934282584885,233.75L129.7918948521358,256.25L139.97809419496167,275L150.16429353778753,266.25L160.02190580503836,267.5L170.2081051478642,263.75L180.065717415115,245L190.25191675794088,256.25L200.4381161007667,202.5L209.63855421686748,215L219.8247535596933,248.74999999999997L229.68236582694414,247.5L239.86856516977,150L249.72617743702082,190L259.9123767798467,233.75L270.0985761226725,211.24999999999997L279.95618838992334,191.25L290.14238773274917,190L300,80.00000000000001" stroke="#dedede" stroke-width="2"/></g></g><path class="foreground" aria-hidden="true" d="" display="none"/></g><g transform="translate(0,0)"><path class="background" aria-hidden="true" d="M0,0h300v300h-300Z"/><g><g class="mark-line role-mark concat_0_layer_0_marks" role="graphics-object" aria-roledescription="line mark container"><path aria-label="primary: Cryo Cannon; Date created: May 2020; Number of builds: 1" role="graphics-symbol" aria-roledescription="line mark" d="M0,298.75L30.230010952902518,285L40.08762322015334,290L50.27382256297919,278.75L60.13143483023001,267.5L70.31763417305585,256.25L80.50383351588171,271.25L89.70427163198248,265L99.89047097480832,229.99999999999997L109.74808324205915,258.75L119.934282584885,237.5L129.7918948521358,267.5L139.97809419496167,275L150.16429353778753,280L160.02190580503836,276.25L170.2081051478642,271.25L180.065717415115,243.75L190.25191675794088,241.25L200.4381161007667,233.75L209.63855421686748,231.25L219.8247535596933,260L229.68236582694414,263.75L239.86856516977,192.49999999999997L249.72617743702082,213.75L259.9123767798467,228.75L270.0985761226725,218.75000000000003L279.95618838992334,215L290.14238773274917,225L300,141.25" stroke="#dedede" stroke-width="2"/></g></g><path class="foreground" aria-hidden="true" d="" display="none"/></g><g transform="translate(0,0)"><path class="background" aria-hidden="true" d="M0,0h300v300h-300Z"/><g><g class="mark-line role-mark concat_0_layer_0_marks" role="graphics-object" aria-roledescription="line mark container"><path aria-label="primary: M1000 Classic; Date created: May 2020; Number of builds: 1" role="graphics-symbol" aria-roledescription="line mark" d="M0,298.75L30.230010952902518,285L40.08762322015334,283.75L50.27382256297919,276.25L60.13143483023001,278.75L70.31763417305585,282.5L80.50383351588171,272.5L89.70427163198248,273.75L99.89047097480832,256.25L109.74808324205915,260L119.934282584885,240L129.7918948521358,270L139.97809419496167,277.5L150.16429353778753,268.75L160.02190580503836,260L170.2081051478642,266.25L180.065717415115,253.75L190.25191675794088,262.5L200.4381161007667,212.49999999999997L209.63855421686748,211.24999999999997L219.8247535596933,225L229.68236582694414,245L239.86856516977,166.25L249.72617743702082,191.25L259.9123767798467,203.75L270.0985761226725,203.75L279.95618838992334,171.25L290.14238773274917,165L300,62.500000000000014" stroke="#dedede" stroke-width="2"/></g></g><path class="foreground" aria-hidden="true" d="" display="none"/></g><g transform="translate(0,0)"><path class="background" aria-hidden="true" d="M0,0h300v300h-300Z"/><g><g class="mark-line role-mark concat_0_layer_0_marks" role="graphics-object" aria-roledescription="line mark container"><path aria-label="primary: CRSPR Flamethrower; Date created: August 2020; Number of builds: 22" role="graphics-symbol" aria-roledescription="line mark" d="M30.230010952902518,272.5L40.08762322015334,288.75L50.27382256297919,268.75L60.13143483023001,281.25L70.31763417305585,256.25L80.50383351588171,270L89.70427163198248,273.75L99.89047097480832,260L109.74808324205915,262.5L119.934282584885,232.5L129.7918948521358,268.75L139.97809419496167,267.5L150.16429353778753,281.25L160.02190580503836,280L170.2081051478642,287.5L180.065717415115,229.99999999999997L190.25191675794088,245L200.4381161007667,223.75L209.63855421686748,217.5L219.8247535596933,240L229.68236582694414,253.75L239.86856516977,97.49999999999999L249.72617743702082,200.00000000000003L259.9123767798467,236.25L270.0985761226725,235L279.95618838992334,201.25000000000003L290.14238773274917,206.25L300,120" stroke="#dedede" stroke-width="2"/></g></g><path class="foreground" aria-hidden="true" d="" display="none"/></g><g transform="translate(0,0)"><path class="background" aria-hidden="true" d="M0,0h300v300h-300Z"/><g><g class="mark-line role-mark concat_0_layer_0_marks" role="graphics-object" aria-roledescription="line mark container"><path aria-label="primary: &quot;Lead Storm&quot; Powered Minigun; Date created: August 2020; Number of builds: 18" role="graphics-symbol" aria-roledescription="line mark" d="M30.230010952902518,277.5L40.08762322015334,281.25L50.27382256297919,285L60.13143483023001,276.25L70.31763417305585,250L80.50383351588171,257.5L89.70427163198248,263.75L99.89047097480832,265L109.74808324205915,253.75L119.934282584885,226.25L129.7918948521358,258.75L139.97809419496167,256.25L150.16429353778753,256.25L160.02190580503836,265L170.2081051478642,275L180.065717415115,261.25L190.25191675794088,256.25L200.4381161007667,208.75L209.63855421686748,233.75L219.8247535596933,242.5L229.68236582694414,236.25L239.86856516977,174.99999999999997L249.72617743702082,222.5L259.9123767798467,232.5L270.0985761226725,192.49999999999997L279.95618838992334,208.75L290.14238773274917,185L300,108.75000000000001" stroke="#dedede" stroke-width="2"/></g></g><path class="foreground" aria-hidden="true" d="" display="none"/></g><g transform="translate(0,0)"><path class="background" aria-hidden="true" d="M0,0h300v300h-300Z"/><g><g class="mark-line role-mark concat_0_layer_0_marks" role="graphics-object" aria-roledescription="line mark container"><path aria-label="primary: Deepcore GK2; Date created: August 2020; Number of builds: 17" role="graphics-symbol" aria-roledescription="line mark" d="M30.230010952902518,278.75L40.08762322015334,285L50.27382256297919,288.75L60.13143483023001,275L70.31763417305585,271.25L80.50383351588171,271.25L89.70427163198248,267.5L99.89047097480832,253.75L109.74808324205915,272.5L119.934282584885,253.75L129.7918948521358,270L139.97809419496167,275L150.16429353778753,280L160.02190580503836,267.5L170.2081051478642,273.75L180.065717415115,272.5L190.25191675794088,262.5L200.4381161007667,231.25L209.63855421686748,251.25L219.8247535596933,256.25L229.68236582694414,252.5L239.86856516977,206.25L249.72617743702082,240L259.9123767798467,242.5L270.0985761226725,246.25L279.95618838992334,229.99999999999997L290.14238773274917,220.00000000000003L300,5.000000000000016" stroke="#dedede" stroke-width="2"/></g></g><path class="foreground" aria-hidden="true" d="" display="none"/></g><g transform="translate(0,0)"><path class="background" aria-hidden="true" d="M0,0h300v300h-300Z"/><g><g class="mark-line role-mark concat_0_layer_0_marks" role="graphics-object" aria-roledescription="line mark container"><path aria-label="primary: &quot;Stubby&quot; Voltaic SMG; Date created: August 2020; Number of builds: 14" role="graphics-symbol" aria-roledescription="line mark" d="M30.230010952902518,282.5L40.08762322015334,295L50.27382256297919,291.25L60.13143483023001,271.25L70.31763417305585,265L80.50383351588171,277.5L89.70427163198248,268.75L99.89047097480832,253.75L109.74808324205915,267.5L119.934282584885,260L129.7918948521358,273.75L139.97809419496167,281.25L150.16429353778753,265L160.02190580503836,277.5L170.2081051478642,275L180.065717415115,271.25L190.25191675794088,266.25L200.4381161007667,263.75L209.63855421686748,262.5L219.8247535596933,263.75L229.68236582694414,261.25L239.86856516977,185L249.72617743702082,212.49999999999997L259.9123767798467,229.99999999999997L270.0985761226725,220.00000000000003L279.95618838992334,211.24999999999997L290.14238773274917,193.74999999999997L300,182.50000000000003" stroke="#dedede" stroke-width="2"/></g></g><path class="foreground" aria-hidden="true" d="" display="none"/></g><g transform="translate(0,0)"><path class="background" aria-hidden="true" d="M0,0h300v300h-300Z"/><g><g class="mark-line role-mark concat_0_layer_0_marks" role="graphics-object" aria-roledescription="line mark container"><path aria-label="primary: DRAK-25 Plasma Carbine; Date created: November 2021; Number of builds: 57" role="graphics-symbol" aria-roledescription="line mark" d="M180.065717415115,228.75L190.25191675794088,238.75000000000003L200.4381161007667,233.75L209.63855421686748,218.75000000000003L219.8247535596933,237.5L229.68236582694414,235L239.86856516977,165L249.72617743702082,202.5L259.9123767798467,236.25L270.0985761226725,222.5L279.95618838992334,203.75L290.14238773274917,186.25L300,142.5" stroke="#dedede" stroke-width="2"/></g></g><path class="foreground" aria-hidden="true" d="" display="none"/></g><g transform="translate(0,0)"><path class="background" aria-hidden="true" d="M0,0h300v300h-300Z"/><g><g class="mark-line role-mark concat_0_layer_0_marks" role="graphics-object" aria-roledescription="line mark container"><path aria-label="primary: Corrosive Sludge Pump; Date created: November 2021; Number of builds: 39" role="graphics-symbol" aria-roledescription="line mark" d="M180.065717415115,251.25L190.25191675794088,263.75L200.4381161007667,243.75L209.63855421686748,246.25L219.8247535596933,275L229.68236582694414,268.75L239.86856516977,163.75000000000003L249.72617743702082,203.75L259.9123767798467,241.25L270.0985761226725,226.25L279.95618838992334,237.5L290.14238773274917,210L300,111.25" stroke="#dedede" stroke-width="2"/></g></g><path class="foreground" aria-hidden="true" d="" display="none"/></g><g transform="translate(0,0)"><path class="background" aria-hidden="true" d="M0,0h300v300h-300Z"/><g><g class="mark-line role-mark concat_0_layer_0_marks" role="graphics-object" aria-roledescription="line mark container"><path aria-label="primary: LOK-1 Smart Rifle; Date created: November 2021; Number of builds: 35" role="graphics-symbol" aria-roledescription="line mark" d="M180.065717415115,256.25L190.25191675794088,240L200.4381161007667,220.00000000000003L209.63855421686748,210L219.8247535596933,246.25L229.68236582694414,247.5L239.86856516977,110.00000000000001L249.72617743702082,211.24999999999997L259.9123767798467,225L270.0985761226725,178.75L279.95618838992334,158.75L290.14238773274917,206.25L300,105" stroke="#dedede" stroke-width="2"/></g></g><path class="foreground" aria-hidden="true" d="" display="none"/></g><g transform="translate(0,0)"><path class="background" aria-hidden="true" d="M0,0h300v300h-300Z"/><g><g class="mark-line role-mark concat_0_layer_0_marks" role="graphics-object" aria-roledescription="line mark container"><path aria-label="primary: &quot;Hurricane&quot; Guided Rocket System; Date created: November 2021; Number of builds: 34" role="graphics-symbol" aria-roledescription="line mark" d="M180.065717415115,257.5L190.25191675794088,243.75L200.4381161007667,250L209.63855421686748,247.5L219.8247535596933,266.25L229.68236582694414,258.75L239.86856516977,208.75L249.72617743702082,228.75L259.9123767798467,252.5L270.0985761226725,229.99999999999997L279.95618838992334,235L290.14238773274917,208.75L300,152.5" stroke="#dedede" stroke-width="2"/></g></g><path class="foreground" aria-hidden="true" d="" display="none"/></g></g><g class="mark-group role-scope concat_0_layer_1_pathgroup" role="graphics-object" aria-roledescription="group mark container"><g transform="translate(0,0)"><path class="background" aria-hidden="true" d="M0,0h300v300h-300Z"/><g><g class="mark-line role-mark concat_0_layer_1_marks" role="graphics-object" aria-roledescription="line mark container"><path aria-label="primary: &quot;Thunderhead&quot; Heavy Autocannon; Date created: May 2020; Number of builds: 1" role="graphics-symbol" aria-roledescription="line mark" d="M0,298.75L30.230010952902518,282.5L40.08762322015334,276.25L50.27382256297919,285L60.13143483023001,276.25L70.31763417305585,258.75L80.50383351588171,276.25L89.70427163198248,266.25L99.89047097480832,266.25L109.74808324205915,267.5L119.934282584885,228.75L129.7918948521358,242.5L139.97809419496167,256.25L150.16429353778753,255L160.02190580503836,268.75L170.2081051478642,268.75L180.065717415115,251.25L190.25191675794088,255L200.4381161007667,220.00000000000003L209.63855421686748,229.99999999999997L219.8247535596933,246.25L229.68236582694414,250L239.86856516977,178.75L249.72617743702082,235L259.9123767798467,232.5L270.0985761226725,202.5L279.95618838992334,216.25L290.14238773274917,166.25L300,135" stroke="#a00000" stroke-width="2"/></g></g><path class="foreground" aria-hidden="true" d="" display="none"/></g><g transform="translate(0,0)"><path class="background" aria-hidden="true" d="M0,0h300v300h-300Z"/><g><g class="mark-line role-mark concat_0_layer_1_marks" role="graphics-object" aria-roledescription="line mark container"><path aria-label="primary: &quot;Lead Storm&quot; Powered Minigun; Date created: August 2020; Number of builds: 18" role="graphics-symbol" aria-roledescription="line mark" d="M30.230010952902518,277.5L40.08762322015334,281.25L50.27382256297919,285L60.13143483023001,276.25L70.31763417305585,250L80.50383351588171,257.5L89.70427163198248,263.75L99.89047097480832,265L109.74808324205915,253.75L119.934282584885,226.25L129.7918948521358,258.75L139.97809419496167,256.25L150.16429353778753,256.25L160.02190580503836,265L170.2081051478642,275L180.065717415115,261.25L190.25191675794088,256.25L200.4381161007667,208.75L209.63855421686748,233.75L219.8247535596933,242.5L229.68236582694414,236.25L239.86856516977,174.99999999999997L249.72617743702082,222.5L259.9123767798467,232.5L270.0985761226725,192.49999999999997L279.95618838992334,208.75L290.14238773274917,185L300,108.75000000000001" stroke="#a00000" stroke-width="2"/></g></g><path class="foreground" aria-hidden="true" d="" display="none"/></g><g transform="translate(0,0)"><path class="background" aria-hidden="true" d="M0,0h300v300h-300Z"/><g><g class="mark-line role-mark concat_0_layer_1_marks" role="graphics-object" aria-roledescription="line mark container"><path aria-label="primary: &quot;Hurricane&quot; Guided Rocket System; Date created: November 2021; Number of builds: 34" role="graphics-symbol" aria-roledescription="line mark" d="M180.065717415115,257.5L190.25191675794088,243.75L200.4381161007667,250L209.63855421686748,247.5L219.8247535596933,266.25L229.68236582694414,258.75L239.86856516977,208.75L249.72617743702082,228.75L259.9123767798467,252.5L270.0985761226725,229.99999999999997L279.95618838992334,235L290.14238773274917,208.75L300,152.5" stroke="#a00000" stroke-width="2"/></g></g><path class="foreground" aria-hidden="true" d="" display="none"/></g></g><g class="mark-group role-title"><g transform="translate(150,-31)"><path class="background" aria-hidden="true" d="M0,0h0v0h0Z" pointer-events="none"/><g><g class="mark-text role-title-text" role="graphics-symbol" aria-roledescription="title" aria-label="Title text 'Gunner'" pointer-events="none"><text text-anchor="middle" transform="translate(0,16)" font-family="Vollkorn" font-size="20px" font-weight="bold" fill="#000" opacity="1">Gunner</text></g></g><path class="foreground" aria-hidden="true" d="" pointer-events="none" display="none"/></g></g></g><path class="foreground" aria-hidden="true" d="" display="none"/></g></g><g class="mark-group role-scope concat_1_group" role="graphics-object" aria-roledescription="group mark container"><g transform="translate(376,0)"><path class="background" aria-hidden="true" d="M0,0h300v300h-300Z"/><g><g class="mark-group role-axis" role="graphics-symbol" aria-roledescription="axis" aria-label="X-axis titled 'Date created' for a time scale with values from May 2020 to November 2022"><g transform="translate(0.5,300.5)"><path class="background" aria-hidden="true" d="M0,0h0v0h0Z" pointer-events="none"/><g><g class="mark-rule role-axis-tick" pointer-events="none"><line transform="translate(10,0)" x2="0" y2="5" stroke="#888" stroke-width="1" opacity="1"/><line transform="translate(40,0)" x2="0" y2="5" stroke="#888" stroke-width="1" opacity="1"/><line transform="translate(71,0)" x2="0" y2="5" stroke="#888" stroke-width="1" opacity="1"/><line transform="translate(100,0)" x2="0" y2="5" stroke="#888" stroke-width="1" opacity="1"/><line transform="translate(130,0)" x2="0" y2="5" stroke="#888" stroke-width="1" opacity="1"/><line transform="translate(160,0)" x2="0" y2="5" stroke="#888" stroke-width="1" opacity="1"/><line transform="translate(190,0)" x2="0" y2="5" stroke="#888" stroke-width="1" opacity="1"/><line transform="translate(220,0)" x2="0" y2="5" stroke="#888" stroke-width="1" opacity="1"/><line transform="translate(250,0)" x2="0" y2="5" stroke="#888" stroke-width="1" opacity="1"/><line transform="translate(280,0)" x2="0" y2="5" stroke="#888" stroke-width="1" opacity="1"/></g><g class="mark-text role-axis-label" pointer-events="none"><text text-anchor="middle" transform="translate(10.076670317634173,18)" font-family="Vollkorn" font-size="14px" fill="#000" opacity="1">July 2020</text><text text-anchor="middle" transform="translate(40.30668127053669,18)" font-family="Vollkorn" font-size="14px" fill="#000" opacity="0">October 2020</text><text text-anchor="middle" transform="translate(70.5366922234392,18)" font-family="Vollkorn" font-size="14px" fill="#000" opacity="0">January 2021</text><text text-anchor="middle" transform="translate(100.10952902519168,18)" font-family="Vollkorn" font-size="14px" fill="#000" opacity="0">April 2021</text><text text-anchor="middle" transform="translate(130.01095290251916,18)" font-family="Vollkorn" font-size="14px" fill="#000" opacity="1">July 2021</text><text text-anchor="middle" transform="translate(160.24096385542168,18)" font-family="Vollkorn" font-size="14px" fill="#000" opacity="0">October 2021</text><text text-anchor="middle" transform="translate(190.4709748083242,18)" font-family="Vollkorn" font-size="14px" fill="#000" opacity="0">January 2022</text><text text-anchor="middle" transform="translate(220.0438116100767,18)" font-family="Vollkorn" font-size="14px" fill="#000" opacity="0">April 2022</text><text text-anchor="middle" transform="translate(249.94523548740415,18)" font-family="Vollkorn" font-size="14px" fill="#000" opacity="1">July 2022</text><text text-anchor="middle" transform="translate(280.1752464403067,18)" font-family="Vollkorn" font-size="14px" fill="#000" opacity="0">October 2022</text></g><g class="mark-rule role-axis-domain" pointer-events="none"><line transform="translate(0,0)" x2="300" y2="0" stroke="#888" stroke-width="1" opacity="1"/></g><g class="mark-text role-axis-title" pointer-events="none"><text text-anchor="middle" transform="translate(150,39)" font-family="Vollkorn" font-size="18px" font-weight="bold" fill="#000" opacity="1">Date created</text></g></g><path class="foreground" aria-hidden="true" d="" pointer-events="none" display="none"/></g></g><g class="mark-group role-axis" role="graphics-symbol" aria-roledescription="axis" aria-label="Y-axis titled 'Number of builds' for a linear scale with values from 0 to 240"><g transform="translate(0.5,0.5)"><path class="background" aria-hidden="true" d="M0,0h0v0h0Z" pointer-events="none"/><g><g class="mark-rule role-axis-tick" pointer-events="none"><line transform="translate(0,300)" x2="-5" y2="0" stroke="#888" stroke-width="1" opacity="1"/><line transform="translate(0,275)" x2="-5" y2="0" stroke="#888" stroke-width="1" opacity="1"/><line transform="translate(0,250)" x2="-5" y2="0" stroke="#888" stroke-width="1" opacity="1"/><line transform="translate(0,225)" x2="-5" y2="0" stroke="#888" stroke-width="1" opacity="1"/><line transform="translate(0,200)" x2="-5" y2="0" stroke="#888" stroke-width="1" opacity="1"/><line transform="translate(0,175)" x2="-5" y2="0" stroke="#888" stroke-width="1" opacity="1"/><line transform="translate(0,150)" x2="-5" y2="0" stroke="#888" stroke-width="1" opacity="1"/><line transform="translate(0,125)" x2="-5" y2="0" stroke="#888" stroke-width="1" opacity="1"/><line transform="translate(0,100)" x2="-5" y2="0" stroke="#888" stroke-width="1" opacity="1"/><line transform="translate(0,75)" x2="-5" y2="0" stroke="#888" stroke-width="1" opacity="1"/><line transform="translate(0,50)" x2="-5" y2="0" stroke="#888" stroke-width="1" opacity="1"/><line transform="translate(0,25)" x2="-5" y2="0" stroke="#888" stroke-width="1" opacity="1"/><line transform="translate(0,0)" x2="-5" y2="0" stroke="#888" stroke-width="1" opacity="1"/></g><g class="mark-text role-axis-label" pointer-events="none"><text text-anchor="end" transform="translate(-7,304)" font-family="Vollkorn" font-size="14px" fill="#000" opacity="1">0</text><text text-anchor="end" transform="translate(-7,279)" font-family="Vollkorn" font-size="14px" fill="#000" opacity="1">20</text><text text-anchor="end" transform="translate(-7,254)" font-family="Vollkorn" font-size="14px" fill="#000" opacity="1">40</text><text text-anchor="end" transform="translate(-7,229)" font-family="Vollkorn" font-size="14px" fill="#000" opacity="1">60</text><text text-anchor="end" transform="translate(-7,204.00000000000003)" font-family="Vollkorn" font-size="14px" fill="#000" opacity="1">80</text><text text-anchor="end" transform="translate(-7,178.99999999999997)" font-family="Vollkorn" font-size="14px" fill="#000" opacity="1">100</text><text text-anchor="end" transform="translate(-7,154)" font-family="Vollkorn" font-size="14px" fill="#000" opacity="1">120</text><text text-anchor="end" transform="translate(-7,129)" font-family="Vollkorn" font-size="14px" fill="#000" opacity="1">140</text><text text-anchor="end" transform="translate(-7,104.00000000000001)" font-family="Vollkorn" font-size="14px" fill="#000" opacity="1">160</text><text text-anchor="end" transform="translate(-7,79)" font-family="Vollkorn" font-size="14px" fill="#000" opacity="1">180</text><text text-anchor="end" transform="translate(-7,53.999999999999986)" font-family="Vollkorn" font-size="14px" fill="#000" opacity="1">200</text><text text-anchor="end" transform="translate(-7,29.00000000000001)" font-family="Vollkorn" font-size="14px" fill="#000" opacity="1">220</text><text text-anchor="end" transform="translate(-7,4)" font-family="Vollkorn" font-size="14px" fill="#000" opacity="1">240</text></g><g class="mark-rule role-axis-domain" pointer-events="none"><line transform="translate(0,300)" x2="0" y2="-300" stroke="#888" stroke-width="1" opacity="1"/></g><g class="mark-text role-axis-title" pointer-events="none"><text text-anchor="middle" transform="translate(-35.4859619140625,150) rotate(-90) translate(0,-4)" font-family="Vollkorn" font-size="18px" font-weight="bold" fill="#000" opacity="1">Number of builds</text></g></g><path class="foreground" aria-hidden="true" d="" pointer-events="none" display="none"/></g></g><g class="mark-group role-scope concat_1_layer_0_pathgroup" role="graphics-object" aria-roledescription="group mark container"><g transform="translate(0,0)"><path class="background" aria-hidden="true" d="M0,0h300v300h-300Z"/><g><g class="mark-line role-mark concat_1_layer_0_marks" role="graphics-object" aria-roledescription="line mark container"><path aria-label="primary: &quot;Thunderhead&quot; Heavy Autocannon; Date created: May 2020; Number of builds: 1" role="graphics-symbol" aria-roledescription="line mark" d="M0,298.75L30.230010952902518,282.5L40.08762322015334,276.25L50.27382256297919,285L60.13143483023001,276.25L70.31763417305585,258.75L80.50383351588171,276.25L89.70427163198248,266.25L99.89047097480832,266.25L109.74808324205915,267.5L119.934282584885,228.75L129.7918948521358,242.5L139.97809419496167,256.25L150.16429353778753,255L160.02190580503836,268.75L170.2081051478642,268.75L180.065717415115,251.25L190.25191675794088,255L200.4381161007667,220.00000000000003L209.63855421686748,229.99999999999997L219.8247535596933,246.25L229.68236582694414,250L239.86856516977,178.75L249.72617743702082,235L259.9123767798467,232.5L270.0985761226725,202.5L279.95618838992334,216.25L290.14238773274917,166.25L300,135" stroke="#dedede" stroke-width="2"/></g></g><path class="foreground" aria-hidden="true" d="" display="none"/></g><g transform="translate(0,0)"><path class="background" aria-hidden="true" d="M0,0h300v300h-300Z"/><g><g class="mark-line role-mark concat_1_layer_0_marks" role="graphics-object" aria-roledescription="line mark container"><path aria-label="primary: &quot;Warthog&quot; Auto 210; Date created: May 2020; Number of builds: 1" role="graphics-symbol" aria-roledescription="line mark" d="M0,298.75L30.230010952902518,280L40.08762322015334,287.5L50.27382256297919,278.75L60.13143483023001,275L70.31763417305585,272.5L80.50383351588171,261.25L89.70427163198248,250L99.89047097480832,251.25L109.74808324205915,250L119.934282584885,233.75L129.7918948521358,256.25L139.97809419496167,275L150.16429353778753,266.25L160.02190580503836,267.5L170.2081051478642,263.75L180.065717415115,245L190.25191675794088,256.25L200.4381161007667,202.5L209.63855421686748,215L219.8247535596933,248.74999999999997L229.68236582694414,247.5L239.86856516977,150L249.72617743702082,190L259.9123767798467,233.75L270.0985761226725,211.24999999999997L279.95618838992334,191.25L290.14238773274917,190L300,80.00000000000001" stroke="#dedede" stroke-width="2"/></g></g><path class="foreground" aria-hidden="true" d="" display="none"/></g><g transform="translate(0,0)"><path class="background" aria-hidden="true" d="M0,0h300v300h-300Z"/><g><g class="mark-line role-mark concat_1_layer_0_marks" role="graphics-object" aria-roledescription="line mark container"><path aria-label="primary: Cryo Cannon; Date created: May 2020; Number of builds: 1" role="graphics-symbol" aria-roledescription="line mark" d="M0,298.75L30.230010952902518,285L40.08762322015334,290L50.27382256297919,278.75L60.13143483023001,267.5L70.31763417305585,256.25L80.50383351588171,271.25L89.70427163198248,265L99.89047097480832,229.99999999999997L109.74808324205915,258.75L119.934282584885,237.5L129.7918948521358,267.5L139.97809419496167,275L150.16429353778753,280L160.02190580503836,276.25L170.2081051478642,271.25L180.065717415115,243.75L190.25191675794088,241.25L200.4381161007667,233.75L209.63855421686748,231.25L219.8247535596933,260L229.68236582694414,263.75L239.86856516977,192.49999999999997L249.72617743702082,213.75L259.9123767798467,228.75L270.0985761226725,218.75000000000003L279.95618838992334,215L290.14238773274917,225L300,141.25" stroke="#dedede" stroke-width="2"/></g></g><path class="foreground" aria-hidden="true" d="" display="none"/></g><g transform="translate(0,0)"><path class="background" aria-hidden="true" d="M0,0h300v300h-300Z"/><g><g class="mark-line role-mark concat_1_layer_0_marks" role="graphics-object" aria-roledescription="line mark container"><path aria-label="primary: M1000 Classic; Date created: May 2020; Number of builds: 1" role="graphics-symbol" aria-roledescription="line mark" d="M0,298.75L30.230010952902518,285L40.08762322015334,283.75L50.27382256297919,276.25L60.13143483023001,278.75L70.31763417305585,282.5L80.50383351588171,272.5L89.70427163198248,273.75L99.89047097480832,256.25L109.74808324205915,260L119.934282584885,240L129.7918948521358,270L139.97809419496167,277.5L150.16429353778753,268.75L160.02190580503836,260L170.2081051478642,266.25L180.065717415115,253.75L190.25191675794088,262.5L200.4381161007667,212.49999999999997L209.63855421686748,211.24999999999997L219.8247535596933,225L229.68236582694414,245L239.86856516977,166.25L249.72617743702082,191.25L259.9123767798467,203.75L270.0985761226725,203.75L279.95618838992334,171.25L290.14238773274917,165L300,62.500000000000014" stroke="#dedede" stroke-width="2"/></g></g><path class="foreground" aria-hidden="true" d="" display="none"/></g><g transform="translate(0,0)"><path class="background" aria-hidden="true" d="M0,0h300v300h-300Z"/><g><g class="mark-line role-mark concat_1_layer_0_marks" role="graphics-object" aria-roledescription="line mark container"><path aria-label="primary: CRSPR Flamethrower; Date created: August 2020; Number of builds: 22" role="graphics-symbol" aria-roledescription="line mark" d="M30.230010952902518,272.5L40.08762322015334,288.75L50.27382256297919,268.75L60.13143483023001,281.25L70.31763417305585,256.25L80.50383351588171,270L89.70427163198248,273.75L99.89047097480832,260L109.74808324205915,262.5L119.934282584885,232.5L129.7918948521358,268.75L139.97809419496167,267.5L150.16429353778753,281.25L160.02190580503836,280L170.2081051478642,287.5L180.065717415115,229.99999999999997L190.25191675794088,245L200.4381161007667,223.75L209.63855421686748,217.5L219.8247535596933,240L229.68236582694414,253.75L239.86856516977,97.49999999999999L249.72617743702082,200.00000000000003L259.9123767798467,236.25L270.0985761226725,235L279.95618838992334,201.25000000000003L290.14238773274917,206.25L300,120" stroke="#dedede" stroke-width="2"/></g></g><path class="foreground" aria-hidden="true" d="" display="none"/></g><g transform="translate(0,0)"><path class="background" aria-hidden="true" d="M0,0h300v300h-300Z"/><g><g class="mark-line role-mark concat_1_layer_0_marks" role="graphics-object" aria-roledescription="line mark container"><path aria-label="primary: &quot;Lead Storm&quot; Powered Minigun; Date created: August 2020; Number of builds: 18" role="graphics-symbol" aria-roledescription="line mark" d="M30.230010952902518,277.5L40.08762322015334,281.25L50.27382256297919,285L60.13143483023001,276.25L70.31763417305585,250L80.50383351588171,257.5L89.70427163198248,263.75L99.89047097480832,265L109.74808324205915,253.75L119.934282584885,226.25L129.7918948521358,258.75L139.97809419496167,256.25L150.16429353778753,256.25L160.02190580503836,265L170.2081051478642,275L180.065717415115,261.25L190.25191675794088,256.25L200.4381161007667,208.75L209.63855421686748,233.75L219.8247535596933,242.5L229.68236582694414,236.25L239.86856516977,174.99999999999997L249.72617743702082,222.5L259.9123767798467,232.5L270.0985761226725,192.49999999999997L279.95618838992334,208.75L290.14238773274917,185L300,108.75000000000001" stroke="#dedede" stroke-width="2"/></g></g><path class="foreground" aria-hidden="true" d="" display="none"/></g><g transform="translate(0,0)"><path class="background" aria-hidden="true" d="M0,0h300v300h-300Z"/><g><g class="mark-line role-mark concat_1_layer_0_marks" role="graphics-object" aria-roledescription="line mark container"><path aria-label="primary: Deepcore GK2; Date created: August 2020; Number of builds: 17" role="graphics-symbol" aria-roledescription="line mark" d="M30.230010952902518,278.75L40.08762322015334,285L50.27382256297919,288.75L60.13143483023001,275L70.31763417305585,271.25L80.50383351588171,271.25L89.70427163198248,267.5L99.89047097480832,253.75L109.74808324205915,272.5L119.934282584885,253.75L129.7918948521358,270L139.97809419496167,275L150.16429353778753,280L160.02190580503836,267.5L170.2081051478642,273.75L180.065717415115,272.5L190.25191675794088,262.5L200.4381161007667,231.25L209.63855421686748,251.25L219.8247535596933,256.25L229.68236582694414,252.5L239.86856516977,206.25L249.72617743702082,240L259.9123767798467,242.5L270.0985761226725,246.25L279.95618838992334,229.99999999999997L290.14238773274917,220.00000000000003L300,5.000000000000016" stroke="#dedede" stroke-width="2"/></g></g><path class="foreground" aria-hidden="true" d="" display="none"/></g><g transform="translate(0,0)"><path class="background" aria-hidden="true" d="M0,0h300v300h-300Z"/><g><g class="mark-line role-mark concat_1_layer_0_marks" role="graphics-object" aria-roledescription="line mark container"><path aria-label="primary: &quot;Stubby&quot; Voltaic SMG; Date created: August 2020; Number of builds: 14" role="graphics-symbol" aria-roledescription="line mark" d="M30.230010952902518,282.5L40.08762322015334,295L50.27382256297919,291.25L60.13143483023001,271.25L70.31763417305585,265L80.50383351588171,277.5L89.70427163198248,268.75L99.89047097480832,253.75L109.74808324205915,267.5L119.934282584885,260L129.7918948521358,273.75L139.97809419496167,281.25L150.16429353778753,265L160.02190580503836,277.5L170.2081051478642,275L180.065717415115,271.25L190.25191675794088,266.25L200.4381161007667,263.75L209.63855421686748,262.5L219.8247535596933,263.75L229.68236582694414,261.25L239.86856516977,185L249.72617743702082,212.49999999999997L259.9123767798467,229.99999999999997L270.0985761226725,220.00000000000003L279.95618838992334,211.24999999999997L290.14238773274917,193.74999999999997L300,182.50000000000003" stroke="#dedede" stroke-width="2"/></g></g><path class="foreground" aria-hidden="true" d="" display="none"/></g><g transform="translate(0,0)"><path class="background" aria-hidden="true" d="M0,0h300v300h-300Z"/><g><g class="mark-line role-mark concat_1_layer_0_marks" role="graphics-object" aria-roledescription="line mark container"><path aria-label="primary: DRAK-25 Plasma Carbine; Date created: November 2021; Number of builds: 57" role="graphics-symbol" aria-roledescription="line mark" d="M180.065717415115,228.75L190.25191675794088,238.75000000000003L200.4381161007667,233.75L209.63855421686748,218.75000000000003L219.8247535596933,237.5L229.68236582694414,235L239.86856516977,165L249.72617743702082,202.5L259.9123767798467,236.25L270.0985761226725,222.5L279.95618838992334,203.75L290.14238773274917,186.25L300,142.5" stroke="#dedede" stroke-width="2"/></g></g><path class="foreground" aria-hidden="true" d="" display="none"/></g><g transform="translate(0,0)"><path class="background" aria-hidden="true" d="M0,0h300v300h-300Z"/><g><g class="mark-line role-mark concat_1_layer_0_marks" role="graphics-object" aria-roledescription="line mark container"><path aria-label="primary: Corrosive Sludge Pump; Date created: November 2021; Number of builds: 39" role="graphics-symbol" aria-roledescription="line mark" d="M180.065717415115,251.25L190.25191675794088,263.75L200.4381161007667,243.75L209.63855421686748,246.25L219.8247535596933,275L229.68236582694414,268.75L239.86856516977,163.75000000000003L249.72617743702082,203.75L259.9123767798467,241.25L270.0985761226725,226.25L279.95618838992334,237.5L290.14238773274917,210L300,111.25" stroke="#dedede" stroke-width="2"/></g></g><path class="foreground" aria-hidden="true" d="" display="none"/></g><g transform="translate(0,0)"><path class="background" aria-hidden="true" d="M0,0h300v300h-300Z"/><g><g class="mark-line role-mark concat_1_layer_0_marks" role="graphics-object" aria-roledescription="line mark container"><path aria-label="primary: LOK-1 Smart Rifle; Date created: November 2021; Number of builds: 35" role="graphics-symbol" aria-roledescription="line mark" d="M180.065717415115,256.25L190.25191675794088,240L200.4381161007667,220.00000000000003L209.63855421686748,210L219.8247535596933,246.25L229.68236582694414,247.5L239.86856516977,110.00000000000001L249.72617743702082,211.24999999999997L259.9123767798467,225L270.0985761226725,178.75L279.95618838992334,158.75L290.14238773274917,206.25L300,105" stroke="#dedede" stroke-width="2"/></g></g><path class="foreground" aria-hidden="true" d="" display="none"/></g><g transform="translate(0,0)"><path class="background" aria-hidden="true" d="M0,0h300v300h-300Z"/><g><g class="mark-line role-mark concat_1_layer_0_marks" role="graphics-object" aria-roledescription="line mark container"><path aria-label="primary: &quot;Hurricane&quot; Guided Rocket System; Date created: November 2021; Number of builds: 34" role="graphics-symbol" aria-roledescription="line mark" d="M180.065717415115,257.5L190.25191675794088,243.75L200.4381161007667,250L209.63855421686748,247.5L219.8247535596933,266.25L229.68236582694414,258.75L239.86856516977,208.75L249.72617743702082,228.75L259.9123767798467,252.5L270.0985761226725,229.99999999999997L279.95618838992334,235L290.14238773274917,208.75L300,152.5" stroke="#dedede" stroke-width="2"/></g></g><path class="foreground" aria-hidden="true" d="" display="none"/></g></g><g class="mark-group role-scope concat_1_layer_1_pathgroup" role="graphics-object" aria-roledescription="group mark container"><g transform="translate(0,0)"><path class="background" aria-hidden="true" d="M0,0h300v300h-300Z"/><g><g class="mark-line role-mark concat_1_layer_1_marks" role="graphics-object" aria-roledescription="line mark container"><path aria-label="primary: Cryo Cannon; Date created: May 2020; Number of builds: 1" role="graphics-symbol" aria-roledescription="line mark" d="M0,298.75L30.230010952902518,285L40.08762322015334,290L50.27382256297919,278.75L60.13143483023001,267.5L70.31763417305585,256.25L80.50383351588171,271.25L89.70427163198248,265L99.89047097480832,229.99999999999997L109.74808324205915,258.75L119.934282584885,237.5L129.7918948521358,267.5L139.97809419496167,275L150.16429353778753,280L160.02190580503836,276.25L170.2081051478642,271.25L180.065717415115,243.75L190.25191675794088,241.25L200.4381161007667,233.75L209.63855421686748,231.25L219.8247535596933,260L229.68236582694414,263.75L239.86856516977,192.49999999999997L249.72617743702082,213.75L259.9123767798467,228.75L270.0985761226725,218.75000000000003L279.95618838992334,215L290.14238773274917,225L300,141.25" stroke="#a00000" stroke-width="2"/></g></g><path class="foreground" aria-hidden="true" d="" display="none"/></g><g transform="translate(0,0)"><path class="background" aria-hidden="true" d="M0,0h300v300h-300Z"/><g><g class="mark-line role-mark concat_1_layer_1_marks" role="graphics-object" aria-roledescription="line mark container"><path aria-label="primary: CRSPR Flamethrower; Date created: August 2020; Number of builds: 22" role="graphics-symbol" aria-roledescription="line mark" d="M30.230010952902518,272.5L40.08762322015334,288.75L50.27382256297919,268.75L60.13143483023001,281.25L70.31763417305585,256.25L80.50383351588171,270L89.70427163198248,273.75L99.89047097480832,260L109.74808324205915,262.5L119.934282584885,232.5L129.7918948521358,268.75L139.97809419496167,267.5L150.16429353778753,281.25L160.02190580503836,280L170.2081051478642,287.5L180.065717415115,229.99999999999997L190.25191675794088,245L200.4381161007667,223.75L209.63855421686748,217.5L219.8247535596933,240L229.68236582694414,253.75L239.86856516977,97.49999999999999L249.72617743702082,200.00000000000003L259.9123767798467,236.25L270.0985761226725,235L279.95618838992334,201.25000000000003L290.14238773274917,206.25L300,120" stroke="#a00000" stroke-width="2"/></g></g><path class="foreground" aria-hidden="true" d="" display="none"/></g><g transform="translate(0,0)"><path class="background" aria-hidden="true" d="M0,0h300v300h-300Z"/><g><g class="mark-line role-mark concat_1_layer_1_marks" role="graphics-object" aria-roledescription="line mark container"><path aria-label="primary: Corrosive Sludge Pump; Date created: November 2021; Number of builds: 39" role="graphics-symbol" aria-roledescription="line mark" d="M180.065717415115,251.25L190.25191675794088,263.75L200.4381161007667,243.75L209.63855421686748,246.25L219.8247535596933,275L229.68236582694414,268.75L239.86856516977,163.75000000000003L249.72617743702082,203.75L259.9123767798467,241.25L270.0985761226725,226.25L279.95618838992334,237.5L290.14238773274917,210L300,111.25" stroke="#a00000" stroke-width="2"/></g></g><path class="foreground" aria-hidden="true" d="" display="none"/></g></g><g class="mark-group role-title"><g transform="translate(150,-31)"><path class="background" aria-hidden="true" d="M0,0h0v0h0Z" pointer-events="none"/><g><g class="mark-text role-title-text" role="graphics-symbol" aria-roledescription="title" aria-label="Title text 'Driller'" pointer-events="none"><text text-anchor="middle" transform="translate(0,16)" font-family="Vollkorn" font-size="20px" font-weight="bold" fill="#000" opacity="1">Driller</text></g></g><path class="foreground" aria-hidden="true" d="" pointer-events="none" display="none"/></g></g></g><path class="foreground" aria-hidden="true" d="" display="none"/></g></g></g><path class="foreground" aria-hidden="true" d="" display="none"/></g></g></g></svg>