<?xml version="1.0" encoding="UTF-8" standalone="no"?>
<!-- Created with Inkscape (http://www.inkscape.org/) -->

<svg
   xmlns:dc="http://purl.org/dc/elements/1.1/"
   xmlns:cc="http://creativecommons.org/ns#"
   xmlns:rdf="http://www.w3.org/1999/02/22-rdf-syntax-ns#"
   xmlns:svg="http://www.w3.org/2000/svg"
   xmlns="http://www.w3.org/2000/svg"
   xmlns:sodipodi="http://sodipodi.sourceforge.net/DTD/sodipodi-0.dtd"
   xmlns:inkscape="http://www.inkscape.org/namespaces/inkscape"
   width="162mm"
   height="199mm"
   viewBox="0 0 162 199"
   version="1.1"
   id="svg27500"
   inkscape:version="0.92.4 (f8dce91, 2019-08-02)"
   sodipodi:docname="land_of_abstraction.svg">
  <defs
     id="defs27494" />
  <sodipodi:namedview
     id="base"
     pagecolor="#ffffff"
     bordercolor="#666666"
     borderopacity="1.0"
     inkscape:pageopacity="0.0"
     inkscape:pageshadow="2"
     inkscape:zoom="0.7"
     inkscape:cx="422.62299"
     inkscape:cy="569.44697"
     inkscape:document-units="mm"
     inkscape:current-layer="layer1-0"
     showgrid="false"
     inkscape:snap-global="false"
     inkscape:window-width="1855"
     inkscape:window-height="1056"
     inkscape:window-x="65"
     inkscape:window-y="24"
     inkscape:window-maximized="1" />
  <metadata
     id="metadata27497">
    <rdf:RDF>
      <cc:Work
         rdf:about="">
        <dc:format>image/svg+xml</dc:format>
        <dc:type
           rdf:resource="http://purl.org/dc/dcmitype/StillImage" />
        <dc:title></dc:title>
      </cc:Work>
    </rdf:RDF>
  </metadata>
  <g
     inkscape:label="Layer 1"
     inkscape:groupmode="layer"
     id="layer1"
     transform="translate(0,-98)">
    <g
       id="layer1-0"
       inkscape:label="Layer 1"
       transform="matrix(0.39589697,0,0,0.39589697,46.974468,114.45749)">
      <path
         inkscape:connector-curvature="0"
         id="path831"
         d="m 87.1713,313.44064 13.61739,28.52438 -20.577495,39.8739 2.149267,17.01812"
         style="fill:none;stroke:#000000;stroke-width:3;stroke-linecap:round;stroke-linejoin:miter;stroke-miterlimit:4;stroke-dasharray:none;stroke-opacity:1"
         sodipodi:nodetypes="cccc" />
      <path
         inkscape:connector-curvature="0"
         id="path833"
         d="m 117.64206,316.627 6.80355,38.87639 -7.66084,23.01402 2.63122,24.53079"
         style="fill:none;stroke:#000000;stroke-width:3;stroke-linecap:round;stroke-linejoin:miter;stroke-miterlimit:4;stroke-dasharray:none;stroke-opacity:1"
         sodipodi:nodetypes="cccc" />
      <path
         sodipodi:nodetypes="ccccccc"
         inkscape:connector-curvature="0"
         id="path825"
         d="m 86.243793,211.64558 -17.685561,56.88093 -5.887238,39.72772 76.616356,12.29439 -0.90558,-41.43868 16.83794,-64.55403 z"
         style="fill:#00ffff;stroke:#000000;stroke-width:3;stroke-linecap:butt;stroke-linejoin:miter;stroke-miterlimit:4;stroke-dasharray:none;stroke-opacity:1" />
      <path
         sodipodi:nodetypes="cccc"
         inkscape:connector-curvature="0"
         id="path827"
         d="m 148.65822,251.17932 18.99622,14.13312 19.58701,-19.94344 7.15125,-3.46723"
         style="fill:none;stroke:#000000;stroke-width:3;stroke-linecap:round;stroke-linejoin:miter;stroke-miterlimit:4;stroke-dasharray:none;stroke-opacity:1" />
      <path
         sodipodi:nodetypes="ccc"
         inkscape:connector-curvature="0"
         id="path829"
         d="M 78.761888,231.75462 59.051173,219.20559 42.712075,172.7808"
         style="fill:none;stroke:#000000;stroke-width:3;stroke-linecap:round;stroke-linejoin:miter;stroke-miterlimit:4;stroke-dasharray:none;stroke-opacity:1" />
      <ellipse
         ry="47.529419"
         rx="47.907394"
         cy="199.25775"
         cx="120.12802"
         id="path10"
         style="opacity:1;fill:#ffe6d5;fill-opacity:1;stroke:#000000;stroke-width:3.94711924;stroke-linecap:square;stroke-linejoin:round;stroke-miterlimit:4;stroke-dasharray:none;stroke-dashoffset:0;stroke-opacity:1" />
      <ellipse
         ry="10.59248"
         rx="5.3008122"
         cy="187.45103"
         cx="108.41788"
         id="path866"
         style="opacity:1;fill:#000000;fill-opacity:1;stroke:#000000;stroke-width:2.22575665;stroke-linecap:round;stroke-linejoin:round;stroke-miterlimit:4;stroke-dasharray:none;stroke-dashoffset:0;stroke-opacity:1" />
      <path
         sodipodi:nodetypes="cscc"
         inkscape:connector-curvature="0"
         id="path893"
         d="m 114.46527,171.57639 c 0,0 -4.16785,-2.0727 -6.44076,-1.88062 -2.19979,0.1859 -6.97737,3.01455 -6.97737,3.01455 v 0"
         style="fill:none;stroke:#000000;stroke-width:1.5;stroke-linecap:butt;stroke-linejoin:miter;stroke-miterlimit:4;stroke-dasharray:none;stroke-opacity:1" />
      <path
         inkscape:connector-curvature="0"
         id="path907"
         d="m 127.48471,217.18105 c 0,14.07452 -14.10218,10.17057 -14.10218,10.17057 0,0 -13.674547,-13.29258 -12.68004,-13.29258 0.99451,0 19.10457,2.86137 19.10457,2.86137"
         style="fill:#000000;stroke:#000000;stroke-width:0.35638744px;stroke-linecap:butt;stroke-linejoin:miter;stroke-opacity:1"
         sodipodi:nodetypes="ccsc" />
      <ellipse
         ry="10.59248"
         rx="5.3008127"
         cy="185.93912"
         cx="126.56075"
         id="path866-6"
         style="opacity:1;fill:#000000;fill-opacity:1;stroke:#000000;stroke-width:2.22575665;stroke-linecap:round;stroke-linejoin:round;stroke-miterlimit:4;stroke-dasharray:none;stroke-dashoffset:0;stroke-opacity:1" />
      <path
         sodipodi:nodetypes="cscc"
         inkscape:connector-curvature="0"
         id="path893-7"
         d="m 133.17514,170.44245 c 0,0 -4.16787,-2.07269 -6.44079,-1.88061 -2.1998,0.1859 -6.97738,3.01455 -6.97738,3.01455 v 0"
         style="fill:none;stroke:#000000;stroke-width:1.5;stroke-linecap:butt;stroke-linejoin:miter;stroke-miterlimit:4;stroke-dasharray:none;stroke-opacity:1" />
      <path
         sodipodi:nodetypes="cscacsc"
         inkscape:connector-curvature="0"
         id="path941"
         d="m 103.11889,155.41289 c -0.37525,1.31338 -13.234556,23.04004 -12.766876,43.4481 0.474467,20.70441 13.900806,43.86458 13.900806,43.86458 0,0 -14.416946,-7.60502 -19.616274,-13.63711 -6.325345,-7.33845 -12.88962,-26.05046 -12.88962,-26.05046 0,0 4.004361,-20.03326 9.380239,-28.52301 5.509155,-8.70024 21.991725,-19.1021 21.991725,-19.1021 z"
         style="opacity:0.1;fill:#000000;stroke:#000000;stroke-width:0.26458332px;stroke-linecap:butt;stroke-linejoin:miter;stroke-opacity:1" />
      <path
         sodipodi:nodetypes="ccccccc"
         inkscape:connector-curvature="0"
         id="path943"
         d="m 81.603622,224.17762 12.677913,17.7016 -9.471669,30.16703 -2.528164,38.51015 -19.610708,-2.30217 5.887238,-39.72772 z"
         style="opacity:0.1;fill:#000000;stroke:#000000;stroke-width:0.26458332px;stroke-linecap:butt;stroke-linejoin:miter;stroke-opacity:1" />
      <g
         id="g28251"
         transform="matrix(-0.88864088,-0.47795794,-0.47795794,0.88864088,147.40541,29.522872)">
        <path
           id="path28196"
           d="m 28.519,186.517 c -3.053,0 -6.233,-0.808 -9.509,-2.421 -5.394,-2.655 -8.827,-6.401 -10.206,-11.134 -2.354,-8.084 2.337,-15.932 2.538,-16.262 0.719,-1.18 2.257,-1.554 3.435,-0.836 1.178,0.716 1.553,2.251 0.839,3.43 -0.062,0.104 -3.748,6.371 -2.003,12.3 0.976,3.316 3.535,6.013 7.605,8.018 4.102,2.019 7.899,2.428 11.287,1.214 6.042,-2.164 9.104,-8.796 9.135,-8.862 L 84.912,84.071 C 79.721,75.479 72.224,68.606 63.158,64.142 53.696,59.484 43.197,57.779 32.793,59.217 31.776,59.355 30.786,58.866 30.28,57.98 25.122,48.943 17.45,41.701 8.093,37.037 7.461,36.722 6.992,36.155 6.801,35.474 6.611,34.794 6.716,34.065 7.093,33.468 16.146,19.08 32.677,9.781 53.642,7.282 c 20.054,-2.39 42.44,1.686 63.302,11.487 l 8.554,-17.373 c 0.609,-1.238 2.107,-1.75 3.347,-1.138 0.883,0.435 1.396,1.321 1.396,2.243 0,0.371 -0.083,0.748 -0.258,1.104 l -8.553,17.372 c 20.491,10.558 37.373,25.816 47.707,43.168 10.804,18.141 13.513,36.914 7.629,52.861 -0.244,0.661 -0.755,1.188 -1.409,1.453 -0.652,0.264 -1.387,0.241 -2.022,-0.065 -9.355,-4.505 -19.71,-6.14 -29.944,-4.728 -0.544,0.075 -1.08,-0.031 -1.54,-0.282 -0.098,-0.043 -0.194,-0.093 -0.288,-0.15 -0.606,-0.367 -1,-0.951 -1.144,-1.592 -5.197,-8.753 -12.773,-15.752 -21.961,-20.276 -9.065,-4.463 -19.084,-6.213 -29.059,-5.088 l -43.235,87.814 c -0.116,0.264 -3.875,8.514 -11.926,11.424 -1.848,0.667 -3.757,1.001 -5.719,1.001 z m 122.044,-78.344 c 7.658,0 15.243,1.538 22.363,4.551 7.842,-26.202 -9.56,-58.809 -41.431,-80.039 5.999,7.464 12.948,17.992 17.44,30.834 7.02,20.07 1.495,37.196 -1.861,44.759 1.164,-0.07 2.328,-0.105 3.489,-0.105 z M 95.286,80.946 c 8.758,0 17.406,2.008 25.38,5.935 8.9,4.382 16.42,10.886 21.978,18.966 3.004,-7.051 7.845,-22.741 1.572,-40.676 C 137.413,45.72 124.36,31.577 118.935,26.287 L 91.977,81.041 c 1.104,-0.063 2.208,-0.095 3.309,-0.095 z M 39.988,53.72 c 8.757,0 17.406,2.009 25.38,5.935 8.977,4.42 16.55,11 22.123,19.178 l 26.987,-54.814 c -7.349,-1.065 -26.732,-2.881 -46.454,3.64 -18.136,5.997 -27.625,19.513 -31.34,26.157 1.102,-0.064 2.204,-0.096 3.304,-0.096 z M 12.835,33.889 C 20.596,38.24 27.185,44.272 32.17,51.576 36.158,44.268 46.363,29.555 66.454,22.911 79.37,18.64 91.954,17.733 101.526,17.931 65.273,5.62 28.825,11.707 12.835,33.889 Z"
           inkscape:connector-curvature="0" />
        <g
           id="g28198">
</g>
        <g
           id="g28200">
</g>
        <g
           id="g28202">
</g>
        <g
           id="g28204">
</g>
        <g
           id="g28206">
</g>
        <g
           id="g28208">
</g>
        <g
           id="g28210">
</g>
        <g
           id="g28212">
</g>
        <g
           id="g28214">
</g>
        <g
           id="g28216">
</g>
        <g
           id="g28218">
</g>
        <g
           id="g28220">
</g>
        <g
           id="g28222">
</g>
        <g
           id="g28224">
</g>
        <g
           id="g28226">
</g>
      </g>
      <path
         style="opacity:1;fill:#ffaaaa;fill-opacity:1;stroke:#ffaaaa;stroke-width:0.18042211;stroke-linecap:butt;stroke-linejoin:round;stroke-miterlimit:4;stroke-dasharray:none;stroke-dashoffset:0;stroke-opacity:1"
         d="m 88.810957,59.616488 c -0.12307,-0.07134 -0.22328,-0.144563 -0.22269,-0.162721 5.9e-4,-0.01818 0.108,-0.121814 0.23868,-0.230328 l 0.23761,-0.1973 v 0.361398 c 0,0.198763 -0.007,0.360775 -0.0149,0.36002 -0.008,-6.68e-4 -0.11562,-0.05975 -0.23869,-0.131069 z"
         id="path28273"
         inkscape:connector-curvature="0" />
      <path
         style="opacity:1;fill:#ffaaaa;fill-opacity:1;stroke:#ffaaaa;stroke-width:1.02062166;stroke-linecap:butt;stroke-linejoin:round;stroke-miterlimit:4;stroke-dasharray:none;stroke-dashoffset:0;stroke-opacity:1"
         d="m -38.236307,53.495697 c -5.327265,-2.933663 -12.562105,-5.312117 -18.943962,-6.22782 l -2.741594,-0.393383 0.314495,-1.402069 c 0.617646,-2.753559 2.070215,-6.520368 3.859928,-10.009568 6.729971,-13.12067 20.266612,-24.496606 37.540689,-31.5484788 9.2875482,-3.79150158 18.39794742,-6.113249 30.434076,-7.7559932 1.322974,-0.18057 0.946212,0.0727 -2.9199422,1.9631344 -7.039736,3.4421444 -13.3601988,7.349896 -19.3583218,11.9686546 -4.108237,3.163484 -11.277471,10.487066 -13.933576,14.233577 -2.587298,3.649444 -6.486461,11.265566 -7.962936,15.55378 -1.19777,3.47876 -2.630683,9.745135 -2.94631,12.884719 -0.12598,1.253155 -0.322001,2.265423 -0.435603,2.24949 -0.113602,-0.01591 -1.421726,-0.698154 -2.906943,-1.516043 z"
         id="path28279"
         inkscape:connector-curvature="0" />
      <path
         style="opacity:1;fill:#ffaaaa;fill-opacity:1;stroke:#ffaaaa;stroke-width:1.02062166;stroke-linecap:butt;stroke-linejoin:round;stroke-miterlimit:4;stroke-dasharray:none;stroke-dashoffset:0;stroke-opacity:1"
         d="M 23.872777,55.691696 C 20.814761,53.979991 15.447855,51.874896 11.483365,50.832127 5.9122282,49.366762 1.2230386,48.866362 -5.1564692,49.056431 c -8.2752878,0.246554 -13.8808548,1.43368 -21.0124488,4.449913 -4.078467,1.72495 -3.869955,2.005849 -2.764226,-3.723911 1.889592,-9.791643 6.124424,-18.668197 12.570498,-26.348809 C -9.1662648,14.859015 4.20045,5.8308925 18.249593,0.05589662 22.190839,-1.5641806 28.770379,-3.829885 28.9274,-3.621068 c 0.05373,0.0715 -2.055967,58.906676 -2.167041,60.433913 -0.03007,0.413613 -0.407457,0.267092 -2.887582,-1.121149 z"
         id="path28281"
         inkscape:connector-curvature="0" />
      <path
         style="opacity:1;fill:#ffaaaa;fill-opacity:1;stroke:#ffaaaa;stroke-width:1.02062166;stroke-linecap:butt;stroke-linejoin:round;stroke-miterlimit:4;stroke-dasharray:none;stroke-dashoffset:0;stroke-opacity:1"
         d="M 84.525176,57.210819 C 75.699567,52.670083 64.299161,50.442908 54.269285,51.30004 c -7.065413,0.603794 -14.880184,2.628624 -19.882251,5.151542 -1.086284,0.547896 -2.031847,0.939395 -2.101251,0.86999 -0.0694,-0.0694 0.359786,-13.750098 0.95375,-30.401524 0.801375,-22.4659127 1.182908,-30.275286 1.479118,-30.275286 1.5337,0 13.910748,6.037889 19.544244,9.5342607 16.663661,10.3421363 27.060877,22.2979193 31.695798,36.4470483 2.042244,6.23445 3.621501,16.524669 2.520114,16.420706 -0.25945,-0.02453 -2.038584,-0.850676 -3.953631,-1.835958 z"
         id="path28283"
         inkscape:connector-curvature="0" />
      <path
         style="opacity:1;fill:#ffaaaa;fill-opacity:1;stroke:#ffaaaa;stroke-width:1.02062166;stroke-linecap:butt;stroke-linejoin:round;stroke-miterlimit:4;stroke-dasharray:none;stroke-dashoffset:0;stroke-opacity:1"
         d="M 94.132445,56.140308 C 93.862525,51.72875 92.550508,45.141243 91.042041,40.62365 85.704293,24.638141 73.7423,11.352631 54.420985,-0.04930338 49.783576,-2.7859278 50.067289,-2.8700278 57.632326,-1.0012836 72.287203,2.618861 84.965596,8.4472369 95.757232,16.525109 c 4.485528,3.357554 11.930528,10.861236 14.770728,14.887157 4.17293,5.915048 7.22006,12.658285 8.52654,18.869083 0.28238,1.342362 0.51341,2.551976 0.51341,2.688031 0,0.136062 -1.82327,0.429679 -4.05171,0.652488 -6.71023,0.670907 -13.21653,2.382217 -18.714111,4.922257 l -2.453204,1.13346 z"
         id="path28285"
         inkscape:connector-curvature="0" />
      <path
         style="opacity:0.1;fill:#000000;stroke:#000000;stroke-width:0.71096212px;stroke-linecap:butt;stroke-linejoin:miter;stroke-opacity:1"
         d="M -31.121459,8.8999371 -42.153442,52.742871 -62.793926,47.307785 c 0,0 4.178671,-10.738131 11.645547,-20.470557 9.745502,-12.702403 20.02692,-17.9372909 20.02692,-17.9372909 z"
         id="path28287"
         inkscape:connector-curvature="0"
         sodipodi:nodetypes="cccsc" />
      <text
         xml:space="preserve"
         style="font-style:normal;font-variant:normal;font-weight:normal;font-stretch:normal;font-size:26.73254395px;line-height:1.25;font-family:Anatolian;-inkscape-font-specification:'Anatolian, Normal';font-variant-ligatures:normal;font-variant-caps:normal;font-variant-numeric:normal;font-feature-settings:normal;text-align:start;letter-spacing:0px;word-spacing:0px;writing-mode:lr-tb;text-anchor:start;fill:#000000;fill-opacity:1;stroke:none;stroke-width:0.66831362"
         x="-113.16759"
         y="454.17578"
         id="text4851"><tspan
           sodipodi:role="line"
           id="tspan4849"
           x="-113.16759"
           y="454.17578"
           style="font-style:normal;font-variant:normal;font-weight:normal;font-stretch:normal;font-size:26.73254395px;font-family:Anatolian;-inkscape-font-specification:'Anatolian, Normal';font-variant-ligatures:normal;font-variant-caps:normal;font-variant-numeric:normal;font-feature-settings:normal;text-align:start;writing-mode:lr-tb;text-anchor:start;stroke-width:0.66831362">&quot;Come to the Land of Abstraction!&quot;</tspan></text>
    </g>
  </g>
</svg>
