<?xml version="1.0" encoding="UTF-8" standalone="no"?>
<!-- Created with Inkscape (http://www.inkscape.org/) -->

<svg
   xmlns:dc="http://purl.org/dc/elements/1.1/"
   xmlns:cc="http://creativecommons.org/ns#"
   xmlns:rdf="http://www.w3.org/1999/02/22-rdf-syntax-ns#"
   xmlns:svg="http://www.w3.org/2000/svg"
   xmlns="http://www.w3.org/2000/svg"
   xmlns:sodipodi="http://sodipodi.sourceforge.net/DTD/sodipodi-0.dtd"
   xmlns:inkscape="http://www.inkscape.org/namespaces/inkscape"
   width="87mm"
   height="106mm"
   viewBox="0 0 87 106"
   version="1.1"
   id="svg31166"
   inkscape:version="0.92.4 (f8dce91, 2019-08-02)"
   sodipodi:docname="pirate_focused.svg">
  <defs
     id="defs31160">
    <clipPath
       clipPathUnits="userSpaceOnUse"
       id="clipPath4295">
      <rect
         style="fill:none;fill-rule:evenodd;stroke:#000000;stroke-width:1.75396931"
         id="rect4297"
         width="550.66345"
         height="321.31689"
         x="-10.988823"
         y="-67.950661"
         rx="11.484369"
         ry="7.1708021" />
    </clipPath>
  </defs>
  <sodipodi:namedview
     id="base"
     pagecolor="#ffffff"
     bordercolor="#666666"
     borderopacity="1.0"
     inkscape:pageopacity="0.0"
     inkscape:pageshadow="2"
     inkscape:zoom="1.4"
     inkscape:cx="218.10554"
     inkscape:cy="201.15596"
     inkscape:document-units="mm"
     inkscape:current-layer="layer1"
     showgrid="false"
     inkscape:snap-global="false"
     inkscape:window-width="1855"
     inkscape:window-height="1056"
     inkscape:window-x="65"
     inkscape:window-y="24"
     inkscape:window-maximized="1" />
  <metadata
     id="metadata31163">
    <rdf:RDF>
      <cc:Work
         rdf:about="">
        <dc:format>image/svg+xml</dc:format>
        <dc:type
           rdf:resource="http://purl.org/dc/dcmitype/StillImage" />
        <dc:title></dc:title>
      </cc:Work>
    </rdf:RDF>
  </metadata>
  <g
     inkscape:label="Layer 1"
     inkscape:groupmode="layer"
     id="layer1"
     transform="translate(0,-191)">
    <path
       style="fill:#00ffff;fill-rule:evenodd;stroke:#000000;stroke-width:0.86500001;stroke-miterlimit:4;stroke-dasharray:none"
       d="m 19.327645,243.80156 h 36.883194 l -2.405426,21.38156 2.405426,28.73147 H 19.327645 l -3.320174,-18.96453 0.781113,-5.75789 z"
       id="rect4179"
       inkscape:connector-curvature="0"
       sodipodi:nodetypes="cccccccc" />
    <ellipse
       ry="25.257544"
       rx="25.458403"
       cy="243.08459"
       cx="19.853159"
       id="path10"
       style="opacity:1;fill:#ffe6d5;fill-opacity:1;stroke:#000000;stroke-width:2.09753323;stroke-linecap:square;stroke-linejoin:round;stroke-miterlimit:4;stroke-dasharray:none;stroke-dashoffset:0;stroke-opacity:1"
       transform="rotate(-5.433762)" />
    <ellipse
       ry="5.6289353"
       rx="2.8168976"
       cy="234.1947"
       cx="64.958153"
       id="path866"
       style="opacity:1;fill:#000000;fill-opacity:1;stroke:#000000;stroke-width:1.18278623;stroke-linecap:round;stroke-linejoin:round;stroke-miterlimit:4;stroke-dasharray:none;stroke-dashoffset:0;stroke-opacity:1"
       transform="rotate(5.748548)" />
    <path
       sodipodi:nodetypes="cscc"
       inkscape:connector-curvature="0"
       id="path893"
       d="m 46.20685,234.6656 c 0,0 -1.801341,-2.98072 -3.00618,-3.11359 -1.166094,-0.1286 -5.033872,-1.57121 -5.033872,-1.57121 l -0.342724,0.48959"
       style="fill:none;stroke:#000000;stroke-width:0.997;stroke-linecap:butt;stroke-linejoin:miter;stroke-miterlimit:4;stroke-dasharray:none;stroke-opacity:1" />
    <ellipse
       ry="5.6289353"
       rx="2.8168976"
       cy="236.04529"
       cx="68.927498"
       id="path866-6"
       style="opacity:1;fill:#000000;fill-opacity:1;stroke:#000000;stroke-width:1.18278623;stroke-linecap:round;stroke-linejoin:round;stroke-miterlimit:4;stroke-dasharray:none;stroke-dashoffset:0;stroke-opacity:1"
       transform="rotate(3.6885302)" />
    <path
       sodipodi:nodetypes="cscc"
       inkscape:connector-curvature="0"
       id="path893-7"
       d="m 55.872638,231.24294 c 0,0 -2.900672,-0.46745 -4.057636,-0.10589 -1.119753,0.34994 -2.772547,2.24037 -2.772547,2.24037 l -0.531107,1.14338"
       style="fill:none;stroke:#000000;stroke-width:0.997;stroke-linecap:butt;stroke-linejoin:miter;stroke-miterlimit:4;stroke-dasharray:none;stroke-opacity:1"
       inkscape:transform-center-x="-1.3517397"
       inkscape:transform-center-y="-0.68327132" />
    <path
       sodipodi:nodetypes="cscacsc"
       inkscape:connector-curvature="0"
       id="path941"
       d="m 31.578398,217.77324 c -0.132484,0.71368 -5.841951,12.85464 -4.567562,23.62739 1.292886,10.92918 9.561148,22.50575 9.561148,22.50575 0,0 -8.009549,-3.29772 -11.063646,-6.22719 -3.715529,-3.56389 -8.129799,-13.13261 -8.129799,-13.13261 0,0 1.110285,-10.7995 3.527034,-15.56129 2.476643,-4.87983 10.672825,-11.21205 10.672825,-11.21205 z"
       style="opacity:0.1;fill:#000000;stroke:#000000;stroke-width:0.14060186px;stroke-linecap:butt;stroke-linejoin:miter;stroke-opacity:1" />
    <rect
       style="fill:#ff8080;fill-rule:evenodd;stroke:#000000;stroke-width:0.78103936;stroke-linecap:round;stroke-miterlimit:4;stroke-dasharray:none"
       id="rect3069"
       width="3.641896"
       height="7.1101451"
       x="107.0341"
       y="228.7823"
       ry="1.0291016"
       rx="1.820948"
       inkscape:transform-center-x="8.8632218"
       inkscape:transform-center-y="-7.8633827"
       transform="matrix(0.95734635,0.28894283,-0.30250523,0.95314772,0,0)" />
    <path
       style="fill:none;stroke:#000000;stroke-width:1.07799995;stroke-linecap:butt;stroke-linejoin:miter;stroke-miterlimit:4;stroke-dasharray:none;stroke-opacity:1"
       d="m 30.853311,255.09302 c 7.85181,3.81998 11.125535,1.88114 11.125535,1.88114"
       id="path31762"
       inkscape:connector-curvature="0"
       sodipodi:nodetypes="cc"
       inkscape:transform-center-x="-0.51510887"
       inkscape:transform-center-y="0.90828507" />
    <path
       style="fill:none;stroke:#000000;stroke-width:1.06500006;stroke-linecap:butt;stroke-linejoin:miter;stroke-miterlimit:4;stroke-dasharray:none;stroke-opacity:1"
       d="m 18.525838,253.28963 -14.2331961,20.89336 24.2962011,9.39669 10.249481,-4.63214"
       id="path4209"
       inkscape:connector-curvature="0"
       sodipodi:nodetypes="cccc" />
    <path
       style="fill:none;stroke:#000000;stroke-width:1.06500006;stroke-linecap:butt;stroke-linejoin:miter;stroke-miterlimit:4;stroke-dasharray:none;stroke-opacity:1"
       d="m 54.072686,263.71314 c 14.03165,13.22984 14.03165,12.96257 14.03165,12.96257"
       id="path4213"
       inkscape:connector-curvature="0" />
    <path
       style="opacity:1;fill:#c87137;fill-opacity:1;stroke:#000000;stroke-width:0.91099966;stroke-linecap:round;stroke-linejoin:round;stroke-miterlimit:4;stroke-dasharray:none;stroke-dashoffset:0;stroke-opacity:1"
       d="m 49.719726,295.58545 c -0.54775,-0.54773 -0.41994,-1.3052 0.43968,-2.60604 1.25059,-1.89246 1.35553,-2.11922 1.40995,-3.04673 l 0.0521,-0.88817 -0.63602,-0.37414 c -1.08589,-0.63876 -2.88904,-2.28235 -3.92652,-3.57904 -1.077472,-1.34668 -1.733193,-2.4661 -2.477116,-4.22884 l -0.478285,-1.13341 -0.891149,-0.13054 c -0.805423,-0.11797 -1.021081,-0.0838 -2.241872,0.3552 -2.12858,0.76544 -2.680754,0.86162 -3.156585,0.54983 -0.575098,-0.37681 -0.772495,-0.88489 -0.551287,-1.41894 0.283111,-0.6835 0.853373,-0.91205 2.746752,-1.10088 1.719016,-0.17146 2.708411,-0.4409 2.708411,-0.7376 0,-0.0858 0.153011,-0.19434 0.340025,-0.24125 0.333684,-0.0837 0.339026,-0.1206 0.286413,-1.97811 -0.02948,-1.04104 0.0264,-2.44904 0.124177,-3.12892 0.240896,-1.67491 1.105407,-4.22652 1.910857,-5.6399 0.364773,-0.6401 0.663223,-1.21632 0.663223,-1.2805 0,-0.21417 -0.669838,-1.26389 -0.979191,-1.53448 -0.167943,-0.14691 -0.781387,-0.5515 -1.363207,-0.89909 -1.364245,-0.81505 -1.771602,-1.12693 -1.997021,-1.52894 -0.271008,-0.4833 -0.2332,-0.91711 0.118955,-1.3648 0.245837,-0.31253 0.444278,-0.39819 0.92248,-0.39819 0.56705,0 0.716368,0.10406 2.155088,1.50201 0.981798,0.95398 1.706662,1.53628 1.986632,1.59592 0.24244,0.0517 0.56335,0.16059 0.71313,0.24209 0.2224,0.12101 0.45708,-0.0212 1.28025,-0.77541 2.50983,-2.29981 5.81946,-3.84282 9.22567,-4.30119 0.54617,-0.0735 0.83012,-0.18803 0.88513,-0.35702 0.0446,-0.13684 0.18026,-0.47265 0.30158,-0.74627 0.22827,-0.51478 0.20798,-1.03851 -0.12779,-3.29692 -0.13679,-0.92003 -0.12294,-1.15164 0.0965,-1.61405 0.48342,-1.01868 1.70123,-1.0369 2.18256,-0.0326 0.18029,0.37619 0.18646,0.68561 0.0376,1.88767 -0.23768,1.92025 -0.22357,2.90258 0.0469,3.26009 0.12202,0.16133 0.22402,0.40304 0.22667,0.53707 0.004,0.18628 0.28093,0.28797 1.17601,0.43138 3.25737,0.52187 6.54991,2.1084 8.90655,4.2917 0.76538,0.70906 0.98454,0.83899 1.20898,0.71674 0.15078,-0.0821 0.47572,-0.19237 0.72208,-0.24501 0.28849,-0.0616 0.96536,-0.60403 1.90133,-1.52359 1.56932,-1.54182 2.07187,-1.80876 2.81609,-1.49587 0.49905,0.20984 0.65287,0.4768 0.65287,1.13303 0,0.56651 -0.55879,1.10991 -2.05372,1.99717 -1.40501,0.8339 -2.0266,1.37947 -2.0266,1.77877 0,0.15875 -0.11901,0.35548 -0.26448,0.43719 -0.24005,0.13488 -0.19263,0.28548 0.51381,1.63209 1.54916,2.95297 2.07634,5.11051 2.06739,8.46107 -0.005,1.83382 0.0291,2.15342 0.23666,2.22354 0.13331,0.045 0.41239,0.21934 0.6202,0.38733 0.36369,0.29403 1.10858,0.44077 3.5393,0.69724 1.47956,0.1561 2.17264,1.15046 1.44589,2.07439 -0.44373,0.56412 -1.0166,0.63333 -2.0574,0.24855 -2.2458,-0.83026 -3.11624,-1.02181 -3.85607,-0.84859 -0.69216,0.16206 -0.70707,0.17857 -1.11104,1.22932 -1.16626,3.03358 -3.71675,6.16524 -6.51423,7.99859 -0.61529,0.40324 -0.61911,0.41154 -0.5503,1.19439 0.0717,0.81558 0.3784,1.46221 1.44217,3.0402 0.79363,1.17723 0.91062,2.01936 0.35746,2.57253 -0.49165,0.49164 -1.01026,0.49465 -1.58718,0.009 -0.33832,-0.28467 -0.57325,-0.74938 -0.93588,-1.85125 -0.58416,-1.77501 -0.98028,-2.5869 -1.32483,-2.71531 -0.14172,-0.0529 -0.3437,-0.2155 -0.44887,-0.36151 -0.1819,-0.25256 -0.23228,-0.25136 -1.03507,0.0249 -2.98006,1.02529 -7.42161,1.02224 -10.41356,-0.007 l -0.86462,-0.29747 -0.63982,0.649 c -0.62706,0.63605 -0.9294,1.2649 -1.53067,3.18372 -0.51671,1.64891 -1.55808,2.23496 -2.42712,1.36592 z m 14.0733,-7.83642 c 0.49524,-0.13733 0.92782,-0.27709 0.96132,-0.31058 0.12058,-0.12059 -3.48124,-6.43172 -3.75391,-6.57764 -0.4789,-0.25629 -1.13295,-0.17132 -1.46698,0.19059 -0.35252,0.38196 -3.51691,6.02226 -3.51691,6.26865 0,0.13346 0.7213,0.3668 2.19126,0.70886 0.70105,0.16314 4.71253,-0.0379 5.58522,-0.27988 z m -9.37188,-5.10446 c 0.71122,-1.72117 1.29315,-3.32116 1.29315,-3.55554 0,-0.57043 -0.36133,-1.05405 -0.86916,-1.1633 -0.36156,-0.0778 -7.22841,1.00987 -7.38887,1.17033 -0.14932,0.14931 1.41122,2.9362 2.19623,3.92211 1.08867,1.3673 3.12322,3.09078 3.37077,2.8554 0.0576,-0.0547 0.68666,-1.50781 1.39788,-3.229 z m 13.88854,3.02374 c 0.98091,-0.68392 2.73458,-2.49933 3.40736,-3.52731 0.91675,-1.40075 1.62485,-2.90814 1.44268,-3.07116 -0.13739,-0.12297 -6.66613,-1.23863 -7.21375,-1.23272 -0.40615,0.005 -1.01321,0.68885 -1.01321,1.14238 0,0.37552 2.67786,7.02117 2.82918,7.02117 0.039,0 0.28557,-0.14957 0.54774,-0.33236 z m -6.94918,-9.21191 0.96711,-0.47692 0.23227,-1.05849 0.23226,-1.05849 -0.62981,-0.79856 -0.62983,-0.79855 -1.15835,-0.008 -1.15834,-0.007 -0.61734,0.77534 c -0.65643,0.82445 -0.68739,0.98688 -0.41388,2.17153 0.16457,0.71275 0.22592,0.78324 1.08114,1.24252 0.49866,0.2678 0.95638,0.48882 1.01715,0.49114 0.0608,0.002 0.54569,-0.21036 1.07762,-0.47264 z m -11.18391,-1.50684 c 3.57994,-1.03737 3.63044,-1.05733 3.96426,-1.5668 0.48925,-0.74669 0.23029,-1.10707 -2.65854,-3.69966 -1.48408,-1.33191 -2.73042,-2.42164 -2.76964,-2.42164 -0.1391,0 -0.74226,1.1422 -1.16457,2.2053 -0.2356,0.59309 -0.53475,1.63914 -0.66477,2.32455 -0.27783,1.46457 -0.32222,4.08414 -0.0692,4.08414 0.092,0 1.60506,-0.41666 3.36247,-0.92589 z m 23.86121,0.35918 c 0.11307,-0.90547 -0.15058,-3.34039 -0.49385,-4.56129 -0.34662,-1.23278 -1.22143,-3.23305 -1.48531,-3.39614 -0.2312,-0.14288 -5.41083,4.5286 -5.58951,5.04115 -0.1724,0.49454 0.10886,1.26598 0.52476,1.43919 0.38782,0.16155 6.58743,2.01152 6.80078,2.02936 0.0947,0.008 0.20421,-0.24058 0.24313,-0.55227 z m -16.05751,-6.76185 c 0.33657,-0.35827 0.3648,-0.55697 0.57034,-4.01488 0.11893,-2.00087 0.19006,-3.66411 0.15808,-3.6961 -0.1276,-0.12759 -2.38146,0.4317 -3.4478,0.85556 -0.62338,0.24779 -1.60944,0.74937 -2.19127,1.1146 -1.12688,0.7074 -2.46778,1.80966 -2.3424,1.92554 0.10208,0.0942 4.64601,3.31681 5.36411,3.80414 0.74028,0.50236 1.42367,0.5064 1.88894,0.0117 z m 6.2176,0.2147 c 0.27684,-0.14818 5.5467,-3.85658 5.7219,-4.02653 0.12386,-0.12012 -1.20779,-1.21675 -2.34238,-1.92899 -1.30928,-0.82191 -2.97154,-1.49263 -4.45281,-1.79671 -0.62046,-0.12739 -1.14376,-0.21595 -1.16286,-0.19683 -0.10454,0.10453 0.42268,7.26318 0.55277,7.50626 0.30435,0.56868 1.07124,0.7704 1.68338,0.4428 z"
       id="path4206"
       inkscape:connector-curvature="0" />
    <ellipse
       style="opacity:1;fill:#2b1100;fill-opacity:1;stroke:#2b1100;stroke-width:0.7247923;stroke-linecap:round;stroke-linejoin:round;stroke-miterlimit:4;stroke-dasharray:none;stroke-dashoffset:0;stroke-opacity:1"
       id="path4211"
       cx="37.368336"
       cy="279.48203"
       rx="2.976434"
       ry="2.8427989" />
    <path
       style="opacity:0.07000002;fill:#000000;stroke:none;stroke-width:0.26458332px;stroke-linecap:butt;stroke-linejoin:miter;stroke-opacity:1"
       d="m 18.793107,251.68601 -2.94946,22.4965 3.884903,19.06391 10.423511,0.13364 -6.949006,-20.57976 2.80633,-12.02712 -3.875408,-3.87541 z"
       id="path4215"
       inkscape:connector-curvature="0"
       sodipodi:nodetypes="cccccccc" />
    <path
       style="opacity:0.07000002;fill:#ffffff;fill-opacity:1;stroke:#ffffff;stroke-width:0.76071429;stroke-linecap:round;stroke-linejoin:round;stroke-miterlimit:4;stroke-dasharray:none;stroke-dashoffset:0;stroke-opacity:1"
       d="m 35.719376,220.71691 -1.482381,-1.38405 0.915424,-0.83996 c 0.503477,-0.46199 1.298114,-1.19706 1.765861,-1.6335 l 0.850434,-0.79354 -1.769861,-1.65499 -1.769858,-1.65499 1.594591,-1.44769 1.594591,-1.44769 1.773838,1.59633 c 0.975617,0.87798 1.834371,1.57389 1.908351,1.54647 0.074,-0.0274 0.867814,-0.70895 1.764088,-1.51451 0.896287,-0.80556 1.706641,-1.46466 1.800811,-1.46466 0.0942,0 0.860924,0.61658 1.703911,1.37017 l 1.532701,1.37016 -0.719877,0.64888 c -0.395937,0.35688 -1.206871,1.09467 -1.802088,1.63953 l -1.082204,0.99066 1.794888,1.66776 1.794891,1.66775 -1.508651,1.32051 c -0.829757,0.72628 -1.578011,1.34363 -1.662791,1.37189 -0.0848,0.0283 -0.917224,-0.62908 -1.849861,-1.46076 -0.932634,-0.83167 -1.757408,-1.51281 -1.832838,-1.51363 -0.0754,-7.9e-4 -0.883344,0.67828 -1.795381,1.50912 -0.912024,0.83083 -1.743278,1.50705 -1.847218,1.5027 -0.10395,-0.004 -0.856067,-0.63073 -1.671371,-1.39196 z"
       id="path4321"
       inkscape:connector-curvature="0" />
    <rect
       style="fill:#ffffff;fill-rule:evenodd;stroke-width:0.3738077"
       id="rect4323"
       width="23.623512"
       height="17.575893"
       x="31.561014"
       y="203.82887"
       rx="2.1886384"
       ry="1.7090445" />
    <g
       id="g4287"
       transform="matrix(0.15855874,0,0,0.14351283,2.7250678,194.83296)"
       clip-path="url(#clipPath4295)">
      <g
         id="g4221">
	<g
   id="g4219">
		<path
   id="path4217"
   d="m 440.626,161.924 c -26.706,0 -49.473,-19.967 -52.957,-46.445 C 383.464,83.521 367.802,54.214 343.567,32.96 319.332,11.705 288.234,0 255.999,0 223.764,0 192.666,11.705 168.432,32.96 144.198,54.214 128.536,83.52 124.33,115.479 120.846,141.958 98.079,161.924 71.372,161.924 H 1.103 l 22.659,74.633 h 464.475 l 22.659,-74.633 z M 300.033,152.247 278.82,173.46 256,150.64 l -22.819,22.82 -21.213,-21.213 22.82,-22.82 -22.82,-22.82 21.213,-21.213 22.819,22.82 22.82,-22.82 21.213,21.213 -22.82,22.82 z"
   inkscape:connector-curvature="0" />

	</g>

</g>
      <g
         id="g4227">
	<g
   id="g4225">
		<path
   id="path4223"
   d="m 32.87,266.557 14.303,47.11 h 35.055 v 118.947 0.615 h 15 c 30.031,0 54.463,24.432 54.463,54.463 V 512 h 35.976 v -31.333 h 30 V 512 h 23.332 v -31.333 h 30 V 512 h 23.333 v -31.333 h 30 V 512 h 35.976 v -24.308 c 0,-30.031 24.432,-54.463 54.463,-54.463 h 15 v -0.615 -118.947 h 35.055 l 14.303,-47.11 z M 172.655,393.46 c -27.38,0 -49.655,-22.275 -49.655,-49.654 0,-11.328 3.821,-21.775 10.23,-30.139 h 78.849 c 6.41,8.364 10.23,18.811 10.23,30.139 0,27.379 -22.276,49.654 -49.654,49.654 z m 98.344,33.822 h -30 v -30 h 30 z m 68.346,-33.822 c -27.38,0 -49.654,-22.275 -49.654,-49.654 0,-11.328 3.82,-21.775 10.229,-30.139 h 78.85 c 6.41,8.364 10.23,18.811 10.23,30.139 0,27.379 -22.275,49.654 -49.655,49.654 z"
   inkscape:connector-curvature="0" />

	</g>

</g>
      <g
         id="g4229">
</g>
      <g
         id="g4231">
</g>
      <g
         id="g4233">
</g>
      <g
         id="g4235">
</g>
      <g
         id="g4237">
</g>
      <g
         id="g4239">
</g>
      <g
         id="g4241">
</g>
      <g
         id="g4243">
</g>
      <g
         id="g4245">
</g>
      <g
         id="g4247">
</g>
      <g
         id="g4249">
</g>
      <g
         id="g4251">
</g>
      <g
         id="g4253">
</g>
      <g
         id="g4255">
</g>
      <g
         id="g4257">
</g>
    </g>
  </g>
</svg>
