<svg xmlns="http://www.w3.org/2000/svg" xmlns:xlink="http://www.w3.org/1999/xlink" version="1.1" class="marks" width="566" height="254" viewBox="0 0 566 254"><rect width="566" height="254" fill="#fffff8"/><g fill="none" stroke-miterlimit="10" transform="translate(59,6)"><g class="mark-group role-frame root" role="graphics-object" aria-roledescription="group mark container"><g transform="translate(0,0)"><path class="background" aria-hidden="true" d="M0,0h500v200h-500Z"/><g><g class="mark-group role-axis" role="graphics-symbol" aria-roledescription="axis" aria-label="X-axis titled 'Date created' for a time scale with values from May 2020 to November 2022"><g transform="translate(0.5,200.5)"><path class="background" aria-hidden="true" d="M0,0h0v0h0Z" pointer-events="none"/><g><g class="mark-rule role-axis-tick" pointer-events="none"><line transform="translate(17,0)" x2="0" y2="5" stroke="#888" stroke-width="1" opacity="1"/><line transform="translate(67,0)" x2="0" y2="5" stroke="#888" stroke-width="1" opacity="1"/><line transform="translate(118,0)" x2="0" y2="5" stroke="#888" stroke-width="1" opacity="1"/><line transform="translate(167,0)" x2="0" y2="5" stroke="#888" stroke-width="1" opacity="1"/><line transform="translate(217,0)" x2="0" y2="5" stroke="#888" stroke-width="1" opacity="1"/><line transform="translate(267,0)" x2="0" y2="5" stroke="#888" stroke-width="1" opacity="1"/><line transform="translate(317,0)" x2="0" y2="5" stroke="#888" stroke-width="1" opacity="1"/><line transform="translate(367,0)" x2="0" y2="5" stroke="#888" stroke-width="1" opacity="1"/><line transform="translate(417,0)" x2="0" y2="5" stroke="#888" stroke-width="1" opacity="1"/><line transform="translate(467,0)" x2="0" y2="5" stroke="#888" stroke-width="1" opacity="1"/></g><g class="mark-text role-axis-label" pointer-events="none"><text text-anchor="middle" transform="translate(16.79445052939029,18)" font-family="Vollkorn" font-size="14px" fill="#000" opacity="1">July 2020</text><text text-anchor="middle" transform="translate(67.17780211756116,18)" font-family="Vollkorn" font-size="14px" fill="#000" opacity="0">October 2020</text><text text-anchor="middle" transform="translate(117.56115370573201,18)" font-family="Vollkorn" font-size="14px" fill="#000" opacity="1">January 2021</text><text text-anchor="middle" transform="translate(166.84921504198613,18)" font-family="Vollkorn" font-size="14px" fill="#000" opacity="0">April 2021</text><text text-anchor="middle" transform="translate(216.6849215041986,18)" font-family="Vollkorn" font-size="14px" fill="#000" opacity="1">July 2021</text><text text-anchor="middle" transform="translate(267.06827309236945,18)" font-family="Vollkorn" font-size="14px" fill="#000" opacity="0">October 2021</text><text text-anchor="middle" transform="translate(317.45162468054036,18)" font-family="Vollkorn" font-size="14px" fill="#000" opacity="1">January 2022</text><text text-anchor="middle" transform="translate(366.73968601679445,18)" font-family="Vollkorn" font-size="14px" fill="#000" opacity="0">April 2022</text><text text-anchor="middle" transform="translate(416.57539247900695,18)" font-family="Vollkorn" font-size="14px" fill="#000" opacity="1">July 2022</text><text text-anchor="middle" transform="translate(466.9587440671778,18)" font-family="Vollkorn" font-size="14px" fill="#000" opacity="0">October 2022</text></g><g class="mark-rule role-axis-domain" pointer-events="none"><line transform="translate(0,0)" x2="500" y2="0" stroke="#888" stroke-width="1" opacity="1"/></g><g class="mark-text role-axis-title" pointer-events="none"><text text-anchor="middle" transform="translate(250,39)" font-family="Vollkorn" font-size="18px" font-weight="bold" fill="#000" opacity="1">Date created</text></g></g><path class="foreground" aria-hidden="true" d="" pointer-events="none" display="none"/></g></g><g class="mark-group role-axis" role="graphics-symbol" aria-roledescription="axis" aria-label="Y-axis titled 'Number of builds' for a linear scale with values from 0 to 220"><g transform="translate(0.5,0.5)"><path class="background" aria-hidden="true" d="M0,0h0v0h0Z" pointer-events="none"/><g><g class="mark-rule role-axis-tick" pointer-events="none"><line transform="translate(0,200)" x2="-5" y2="0" stroke="#888" stroke-width="1" opacity="1"/><line transform="translate(0,155)" x2="-5" y2="0" stroke="#888" stroke-width="1" opacity="1"/><line transform="translate(0,109)" x2="-5" y2="0" stroke="#888" stroke-width="1" opacity="1"/><line transform="translate(0,64)" x2="-5" y2="0" stroke="#888" stroke-width="1" opacity="1"/><line transform="translate(0,18)" x2="-5" y2="0" stroke="#888" stroke-width="1" opacity="1"/></g><g class="mark-text role-axis-label" pointer-events="none"><text text-anchor="end" transform="translate(-7,204)" font-family="Vollkorn" font-size="14px" fill="#000" opacity="1">0</text><text text-anchor="end" transform="translate(-7,158.54545454545453)" font-family="Vollkorn" font-size="14px" fill="#000" opacity="1">50</text><text text-anchor="end" transform="translate(-7,113.09090909090908)" font-family="Vollkorn" font-size="14px" fill="#000" opacity="1">100</text><text text-anchor="end" transform="translate(-7,67.63636363636365)" font-family="Vollkorn" font-size="14px" fill="#000" opacity="1">150</text><text text-anchor="end" transform="translate(-7,22.181818181818187)" font-family="Vollkorn" font-size="14px" fill="#000" opacity="1">200</text></g><g class="mark-rule role-axis-domain" pointer-events="none"><line transform="translate(0,200)" x2="0" y2="-200" stroke="#888" stroke-width="1" opacity="1"/></g><g class="mark-text role-axis-title" pointer-events="none"><text text-anchor="middle" transform="translate(-35.4859619140625,100) rotate(-90) translate(0,-4)" font-family="Vollkorn" font-size="18px" font-weight="bold" fill="#000" opacity="1">Number of builds</text></g></g><path class="foreground" aria-hidden="true" d="" pointer-events="none" display="none"/></g></g><g class="mark-group role-scope layer_0_pathgroup" role="graphics-object" aria-roledescription="group mark container"><g transform="translate(0,0)"><path class="background" aria-hidden="true" d="M0,0h500v200h-500Z"/><g><g class="mark-line role-mark layer_0_marks" role="graphics-object" aria-roledescription="line mark container"><path aria-label="secondary: &quot;Bulldog&quot; Heavy Revolver; Date created: May 2020; Number of builds: 1" role="graphics-symbol" aria-roledescription="line mark" d="M0,199.0909090909091L50.38335158817087,187.27272727272728L66.81270536692223,189.0909090909091L83.78970427163199,189.0909090909091L100.21905805038335,184.54545454545453L117.1960569550931,160.9090909090909L134.17305585980284,174.54545454545456L149.50711938663747,170.9090909090909L166.48411829134722,175.45454545454547L182.91347207009858,170.9090909090909L199.89047097480832,143.63636363636365L216.3198247535597,160L233.29682365826946,171.8181818181818L250.2738225629792,166.36363636363635L266.70317634173057,172.72727272727272L283.6801752464403,180.9090909090909L300.10952902519165,151.8181818181818L317.0865279299014,150.9090909090909L334.06352683461114,113.63636363636363L349.3975903614458,135.45454545454544L366.3745892661555,145.45454545454547L382.8039430449069,135.45454545454544L399.78094194961665,110.00000000000001L416.21029572836807,142.72727272727272L433.1872946330778,137.27272727272725L450.16429353778756,109.09090909090908L466.5936473165389,139.0909090909091L483.57064622124864,106.36363636363635L500,48.181818181818194" stroke="#dedede" stroke-width="2"/></g></g><path class="foreground" aria-hidden="true" d="" display="none"/></g><g transform="translate(0,0)"><path class="background" aria-hidden="true" d="M0,0h500v200h-500Z"/><g><g class="mark-line role-mark layer_0_marks" role="graphics-object" aria-roledescription="line mark container"><path aria-label="secondary: Breach Cutter; Date created: May 2020; Number of builds: 1" role="graphics-symbol" aria-roledescription="line mark" d="M0,199.0909090909091L50.38335158817087,186.36363636363637L66.81270536692223,190.9090909090909L83.78970427163199,187.27272727272728L100.21905805038335,185.45454545454544L117.1960569550931,190L134.17305585980284,176.36363636363637L149.50711938663747,181.8181818181818L166.48411829134722,168.1818181818182L182.91347207009858,180L199.89047097480832,164.54545454545456L216.3198247535597,181.8181818181818L233.29682365826946,191.8181818181818L250.2738225629792,181.8181818181818L266.70317634173057,182.72727272727272L283.6801752464403,180.9090909090909L300.10952902519165,159.0909090909091L317.0865279299014,160.9090909090909L334.06352683461114,135.45454545454544L349.3975903614458,127.27272727272727L366.3745892661555,150L382.8039430449069,159.0909090909091L399.78094194961665,112.72727272727275L416.21029572836807,136.36363636363637L433.1872946330778,168.1818181818182L450.16429353778756,130.9090909090909L466.5936473165389,125.45454545454544L483.57064622124864,140.9090909090909L500,92.72727272727272" stroke="#dedede" stroke-width="2"/></g></g><path class="foreground" aria-hidden="true" d="" display="none"/></g><g transform="translate(0,0)"><path class="background" aria-hidden="true" d="M0,0h500v200h-500Z"/><g><g class="mark-line role-mark layer_0_marks" role="graphics-object" aria-roledescription="line mark container"><path aria-label="secondary: Jury-Rigged Boomstick; Date created: May 2020; Number of builds: 1" role="graphics-symbol" aria-roledescription="line mark" d="M0,199.0909090909091L50.38335158817087,184.54545454545453L66.81270536692223,187.27272727272728L83.78970427163199,184.54545454545453L100.21905805038335,178.1818181818182L117.1960569550931,179.0909090909091L134.17305585980284,179.0909090909091L149.50711938663747,176.36363636363637L166.48411829134722,168.1818181818182L182.91347207009858,175.45454545454547L199.89047097480832,167.27272727272728L216.3198247535597,170.9090909090909L233.29682365826946,179.0909090909091L250.2738225629792,174.54545454545456L266.70317634173057,170L283.6801752464403,176.36363636363637L300.10952902519165,160.9090909090909L317.0865279299014,159.0909090909091L334.06352683461114,109.09090909090908L349.3975903614458,116.36363636363636L366.3745892661555,142.72727272727272L382.8039430449069,146.36363636363637L399.78094194961665,123.63636363636363L416.21029572836807,126.36363636363637L433.1872946330778,140L450.16429353778756,140L466.5936473165389,114.54545454545455L483.57064622124864,108.18181818181817L500,37.27272727272728" stroke="#dedede" stroke-width="2"/></g></g><path class="foreground" aria-hidden="true" d="" display="none"/></g><g transform="translate(0,0)"><path class="background" aria-hidden="true" d="M0,0h500v200h-500Z"/><g><g class="mark-line role-mark layer_0_marks" role="graphics-object" aria-roledescription="line mark container"><path aria-label="secondary: Subata 120; Date created: May 2020; Number of builds: 1" role="graphics-symbol" aria-roledescription="line mark" d="M0,199.0909090909091L50.38335158817087,183.63636363636365L66.81270536692223,197.27272727272725L83.78970427163199,180L100.21905805038335,183.63636363636365L117.1960569550931,180.9090909090909L134.17305585980284,186.36363636363637L149.50711938663747,184.54545454545453L166.48411829134722,164.54545454545456L182.91347207009858,175.45454545454547L199.89047097480832,154.54545454545453L216.3198247535597,180.9090909090909L233.29682365826946,180.9090909090909L250.2738225629792,190.9090909090909L266.70317634173057,188.1818181818182L283.6801752464403,189.0909090909091L300.10952902519165,150.9090909090909L317.0865279299014,165.45454545454547L334.06352683461114,156.36363636363637L349.3975903614458,143.63636363636365L366.3745892661555,160.9090909090909L382.8039430449069,167.27272727272728L399.78094194961665,153.63636363636363L416.21029572836807,157.27272727272728L433.1872946330778,165.45454545454547L450.16429353778756,168.1818181818182L466.5936473165389,154.54545454545453L483.57064622124864,152.72727272727275L500,105.45454545454547" stroke="#dedede" stroke-width="2"/></g></g><path class="foreground" aria-hidden="true" d="" display="none"/></g><g transform="translate(0,0)"><path class="background" aria-hidden="true" d="M0,0h500v200h-500Z"/><g><g class="mark-line role-mark layer_0_marks" role="graphics-object" aria-roledescription="line mark container"><path aria-label="secondary: Deepcore 40MM PGL; Date created: August 2020; Number of builds: 12" role="graphics-symbol" aria-roledescription="line mark" d="M50.38335158817087,189.0909090909091L66.81270536692223,197.27272727272725L83.78970427163199,189.0909090909091L100.21905805038335,175.45454545454547L117.1960569550931,163.63636363636363L134.17305585980284,181.8181818181818L149.50711938663747,167.27272727272728L166.48411829134722,167.27272727272728L182.91347207009858,160.9090909090909L199.89047097480832,154.54545454545453L216.3198247535597,168.1818181818182L233.29682365826946,176.36363636363637L250.2738225629792,169.0909090909091L266.70317634173057,180L283.6801752464403,174.54545454545456L300.10952902519165,148.1818181818182L317.0865279299014,144.54545454545453L334.06352683461114,113.63636363636363L349.3975903614458,122.72727272727273L366.3745892661555,149.0909090909091L382.8039430449069,152.72727272727275L399.78094194961665,94.54545454545456L416.21029572836807,129.0909090909091L433.1872946330778,140.9090909090909L450.16429353778756,123.63636363636363L466.5936473165389,99.0909090909091L483.57064622124864,102.72727272727273L500,22.72727272727273" stroke="#dedede" stroke-width="2"/></g></g><path class="foreground" aria-hidden="true" d="" display="none"/></g><g transform="translate(0,0)"><path class="background" aria-hidden="true" d="M0,0h500v200h-500Z"/><g><g class="mark-line role-mark layer_0_marks" role="graphics-object" aria-roledescription="line mark container"><path aria-label="secondary: Experimental Plasma Charger; Date created: August 2020; Number of builds: 12" role="graphics-symbol" aria-roledescription="line mark" d="M50.38335158817087,189.0909090909091L66.81270536692223,191.8181818181818L83.78970427163199,187.27272727272728L100.21905805038335,182.72727272727272L117.1960569550931,165.45454545454547L134.17305585980284,176.36363636363637L149.50711938663747,174.54545454545456L166.48411829134722,163.63636363636363L182.91347207009858,169.0909090909091L199.89047097480832,155.45454545454547L216.3198247535597,177.27272727272728L233.29682365826946,182.72727272727272L250.2738225629792,182.72727272727272L266.70317634173057,181.8181818181818L283.6801752464403,182.72727272727272L300.10952902519165,128.1818181818182L317.0865279299014,137.27272727272725L334.06352683461114,109.09090909090908L349.3975903614458,117.27272727272728L366.3745892661555,153.63636363636363L382.8039430449069,152.72727272727275L399.78094194961665,105.45454545454547L416.21029572836807,141.8181818181818L433.1872946330778,169.0909090909091L450.16429353778756,140L466.5936473165389,138.1818181818182L483.57064622124864,136.36363636363637L500,69.0909090909091" stroke="#dedede" stroke-width="2"/></g></g><path class="foreground" aria-hidden="true" d="" display="none"/></g><g transform="translate(0,0)"><path class="background" aria-hidden="true" d="M0,0h500v200h-500Z"/><g><g class="mark-line role-mark layer_0_marks" role="graphics-object" aria-roledescription="line mark container"><path aria-label="secondary: BRT7 Burst Fire Gun; Date created: August 2020; Number of builds: 9" role="graphics-symbol" aria-roledescription="line mark" d="M50.38335158817087,191.8181818181818L66.81270536692223,191.8181818181818L83.78970427163199,193.63636363636363L100.21905805038335,184.54545454545453L117.1960569550931,179.0909090909091L134.17305585980284,184.54545454545453L149.50711938663747,180L166.48411829134722,180L182.91347207009858,180.9090909090909L199.89047097480832,155.45454545454547L216.3198247535597,175.45454545454547L233.29682365826946,176.36363636363637L250.2738225629792,179.0909090909091L266.70317634173057,179.0909090909091L283.6801752464403,181.8181818181818L300.10952902519165,160L317.0865279299014,157.27272727272728L334.06352683461114,140.9090909090909L349.3975903614458,139.0909090909091L366.3745892661555,158.1818181818182L382.8039430449069,161.8181818181818L399.78094194961665,144.54545454545453L416.21029572836807,163.63636363636363L433.1872946330778,165.45454545454547L450.16429353778756,149.0909090909091L466.5936473165389,146.36363636363637L483.57064622124864,112.72727272727275L500,99.0909090909091" stroke="#dedede" stroke-width="2"/></g></g><path class="foreground" aria-hidden="true" d="" display="none"/></g><g transform="translate(0,0)"><path class="background" aria-hidden="true" d="M0,0h500v200h-500Z"/><g><g class="mark-line role-mark layer_0_marks" role="graphics-object" aria-roledescription="line mark container"><path aria-label="secondary: Zhukov NUK17; Date created: August 2020; Number of builds: 9" role="graphics-symbol" aria-roledescription="line mark" d="M50.38335158817087,191.8181818181818L66.81270536692223,198.1818181818182L83.78970427163199,190.9090909090909L100.21905805038335,188.1818181818182L117.1960569550931,192.72727272727272L134.17305585980284,180.9090909090909L149.50711938663747,181.8181818181818L166.48411829134722,170L182.91347207009858,180.9090909090909L199.89047097480832,156.36363636363637L216.3198247535597,184.54545454545453L233.29682365826946,187.27272727272728L250.2738225629792,189.0909090909091L266.70317634173057,180L283.6801752464403,180.9090909090909L300.10952902519165,143.63636363636365L317.0865279299014,140.9090909090909L334.06352683461114,138.1818181818182L349.3975903614458,133.63636363636365L366.3745892661555,133.63636363636365L382.8039430449069,145.45454545454547L399.78094194961665,135.45454545454544L416.21029572836807,133.63636363636365L433.1872946330778,160.9090909090909L450.16429353778756,140L466.5936473165389,123.63636363636363L483.57064622124864,129.0909090909091L500,16.36363636363636" stroke="#dedede" stroke-width="2"/></g></g><path class="foreground" aria-hidden="true" d="" display="none"/></g><g transform="translate(0,0)"><path class="background" aria-hidden="true" d="M0,0h500v200h-500Z"/><g><g class="mark-line role-mark layer_0_marks" role="graphics-object" aria-roledescription="line mark container"><path aria-label="secondary: Colette Wave Cooker; Date created: May 2022; Number of builds: 193" role="graphics-symbol" aria-roledescription="line mark" d="M399.78094194961665,24.545454545454536L416.21029572836807,101.81818181818181L433.1872946330778,134.54545454545453L450.16429353778756,141.8181818181818L466.5936473165389,137.27272727272725L483.57064622124864,130L500,39.99999999999999" stroke="#dedede" stroke-width="2"/></g></g><path class="foreground" aria-hidden="true" d="" display="none"/></g><g transform="translate(0,0)"><path class="background" aria-hidden="true" d="M0,0h500v200h-500Z"/><g><g class="mark-line role-mark layer_0_marks" role="graphics-object" aria-roledescription="line mark container"><path aria-label="secondary: Shard Diffractor; Date created: May 2022; Number of builds: 164" role="graphics-symbol" aria-roledescription="line mark" d="M399.78094194961665,50.90909090909091L416.21029572836807,126.36363636363637L433.1872946330778,137.27272727272725L450.16429353778756,137.27272727272725L466.5936473165389,130.9090909090909L483.57064622124864,132.72727272727272L500,92.72727272727272" stroke="#dedede" stroke-width="2"/></g></g><path class="foreground" aria-hidden="true" d="" display="none"/></g><g transform="translate(0,0)"><path class="background" aria-hidden="true" d="M0,0h500v200h-500Z"/><g><g class="mark-line role-mark layer_0_marks" role="graphics-object" aria-roledescription="line mark container"><path aria-label="secondary: Nishanka Boltshark X-80; Date created: May 2022; Number of builds: 134" role="graphics-symbol" aria-roledescription="line mark" d="M399.78094194961665,78.18181818181817L416.21029572836807,150L433.1872946330778,152.72727272727275L450.16429353778756,156.36363636363637L466.5936473165389,145.45454545454547L483.57064622124864,132.72727272727272L500,49.09090909090909" stroke="#dedede" stroke-width="2"/></g></g><path class="foreground" aria-hidden="true" d="" display="none"/></g><g transform="translate(0,0)"><path class="background" aria-hidden="true" d="M0,0h500v200h-500Z"/><g><g class="mark-line role-mark layer_0_marks" role="graphics-object" aria-roledescription="line mark container"><path aria-label="secondary: Armskore Coil Gun; Date created: May 2022; Number of builds: 100" role="graphics-symbol" aria-roledescription="line mark" d="M399.78094194961665,109.09090909090908L416.21029572836807,141.8181818181818L433.1872946330778,167.27272727272728L450.16429353778756,147.27272727272725L466.5936473165389,149.0909090909091L483.57064622124864,136.36363636363637L500,89.0909090909091" stroke="#dedede" stroke-width="2"/></g></g><path class="foreground" aria-hidden="true" d="" display="none"/></g></g><g class="mark-group role-scope layer_1_pathgroup" role="graphics-object" aria-roledescription="group mark container"><g transform="translate(0,0)"><path class="background" aria-hidden="true" d="M0,0h500v200h-500Z"/><g><g class="mark-line role-mark layer_1_marks" role="graphics-object" aria-roledescription="line mark container"><path aria-label="secondary: Colette Wave Cooker; Date created: May 2022; Number of builds: 193" role="graphics-symbol" aria-roledescription="line mark" d="M399.78094194961665,24.545454545454536L416.21029572836807,101.81818181818181L433.1872946330778,134.54545454545453L450.16429353778756,141.8181818181818L466.5936473165389,137.27272727272725L483.57064622124864,130L500,39.99999999999999" stroke="#a00000" stroke-width="2"/></g></g><path class="foreground" aria-hidden="true" d="" display="none"/></g><g transform="translate(0,0)"><path class="background" aria-hidden="true" d="M0,0h500v200h-500Z"/><g><g class="mark-line role-mark layer_1_marks" role="graphics-object" aria-roledescription="line mark container"><path aria-label="secondary: Shard Diffractor; Date created: May 2022; Number of builds: 164" role="graphics-symbol" aria-roledescription="line mark" d="M399.78094194961665,50.90909090909091L416.21029572836807,126.36363636363637L433.1872946330778,137.27272727272725L450.16429353778756,137.27272727272725L466.5936473165389,130.9090909090909L483.57064622124864,132.72727272727272L500,92.72727272727272" stroke="#a00000" stroke-width="2"/></g></g><path class="foreground" aria-hidden="true" d="" display="none"/></g><g transform="translate(0,0)"><path class="background" aria-hidden="true" d="M0,0h500v200h-500Z"/><g><g class="mark-line role-mark layer_1_marks" role="graphics-object" aria-roledescription="line mark container"><path aria-label="secondary: Nishanka Boltshark X-80; Date created: May 2022; Number of builds: 134" role="graphics-symbol" aria-roledescription="line mark" d="M399.78094194961665,78.18181818181817L416.21029572836807,150L433.1872946330778,152.72727272727275L450.16429353778756,156.36363636363637L466.5936473165389,145.45454545454547L483.57064622124864,132.72727272727272L500,49.09090909090909" stroke="#a00000" stroke-width="2"/></g></g><path class="foreground" aria-hidden="true" d="" display="none"/></g><g transform="translate(0,0)"><path class="background" aria-hidden="true" d="M0,0h500v200h-500Z"/><g><g class="mark-line role-mark layer_1_marks" role="graphics-object" aria-roledescription="line mark container"><path aria-label="secondary: Armskore Coil Gun; Date created: May 2022; Number of builds: 100" role="graphics-symbol" aria-roledescription="line mark" d="M399.78094194961665,109.09090909090908L416.21029572836807,141.8181818181818L433.1872946330778,167.27272727272728L450.16429353778756,147.27272727272725L466.5936473165389,149.0909090909091L483.57064622124864,136.36363636363637L500,89.0909090909091" stroke="#a00000" stroke-width="2"/></g></g><path class="foreground" aria-hidden="true" d="" display="none"/></g></g><g class="mark-rule role-mark layer_2_marks" role="graphics-object" aria-roledescription="rule mark container" pointer-events="none"><line aria-label="color: #808080; Date: Apr 28, 2022" role="graphics-symbol" aria-roledescription="rule mark" transform="translate(381.70865279299016,0)" x2="0" y2="200" stroke="#808080"/><line aria-label="color: #808080; Date: Nov 03, 2022" role="graphics-symbol" aria-roledescription="rule mark" transform="translate(485.21358159912376,0)" x2="0" y2="200" stroke="#808080"/></g></g><path class="foreground" aria-hidden="true" d="" display="none"/></g></g></g></svg>