<?xml version="1.0" encoding="UTF-8" standalone="no"?>
<!-- Created with Inkscape (http://www.inkscape.org/) -->

<svg
   xmlns:dc="http://purl.org/dc/elements/1.1/"
   xmlns:cc="http://creativecommons.org/ns#"
   xmlns:rdf="http://www.w3.org/1999/02/22-rdf-syntax-ns#"
   xmlns:svg="http://www.w3.org/2000/svg"
   xmlns="http://www.w3.org/2000/svg"
   xmlns:sodipodi="http://sodipodi.sourceforge.net/DTD/sodipodi-0.dtd"
   xmlns:inkscape="http://www.inkscape.org/namespaces/inkscape"
   width="143mm"
   height="95mm"
   viewBox="0 0 143 95"
   version="1.1"
   id="svg31166"
   inkscape:version="0.92.4 (f8dce91, 2019-08-02)"
   sodipodi:docname="switcheroo.svg">
  <defs
     id="defs31160" />
  <sodipodi:namedview
     id="base"
     pagecolor="#ffffff"
     bordercolor="#666666"
     borderopacity="1.0"
     inkscape:pageopacity="0.0"
     inkscape:pageshadow="2"
     inkscape:zoom="0.7"
     inkscape:cx="412.9061"
     inkscape:cy="512.66131"
     inkscape:document-units="mm"
     inkscape:current-layer="layer1"
     showgrid="false"
     inkscape:snap-global="false"
     inkscape:window-width="1855"
     inkscape:window-height="1056"
     inkscape:window-x="65"
     inkscape:window-y="24"
     inkscape:window-maximized="1" />
  <metadata
     id="metadata31163">
    <rdf:RDF>
      <cc:Work
         rdf:about="">
        <dc:format>image/svg+xml</dc:format>
        <dc:type
           rdf:resource="http://purl.org/dc/dcmitype/StillImage" />
        <dc:title></dc:title>
      </cc:Work>
    </rdf:RDF>
  </metadata>
  <g
     inkscape:label="Layer 1"
     inkscape:groupmode="layer"
     id="layer1"
     transform="translate(0,-202)">
    <path
       inkscape:connector-curvature="0"
       id="path831"
       d="m 69.459679,272.83658 -9.223822,9.75314 -2.376941,11.14744 -5.609613,-0.10236"
       style="fill:none;stroke:#000000;stroke-width:1.18769097;stroke-linecap:round;stroke-linejoin:miter;stroke-miterlimit:4;stroke-dasharray:none;stroke-opacity:1"
       sodipodi:nodetypes="cccc" />
    <path
       inkscape:connector-curvature="0"
       id="path833"
       d="m 81.588233,272.95004 9.24615,8.88578 1.93758,10.48672 4.82462,-0.19547"
       style="fill:none;stroke:#000000;stroke-width:1.18769097;stroke-linecap:round;stroke-linejoin:miter;stroke-miterlimit:4;stroke-dasharray:none;stroke-opacity:1"
       sodipodi:nodetypes="cccc" />
    <path
       sodipodi:nodetypes="ccccccc"
       inkscape:connector-curvature="0"
       id="path825"
       d="m 65.277893,232.75209 -4.837776,23.08082 -0.8309,15.87811 30.656846,1.97313 -1.91042,-16.29778 4.21604,-26.07314 z"
       style="fill:#00ffff;stroke:#000000;stroke-width:1.18769097;stroke-linecap:butt;stroke-linejoin:miter;stroke-miterlimit:4;stroke-dasharray:none;stroke-opacity:1" />
    <path
       sodipodi:nodetypes="cccc"
       inkscape:connector-curvature="0"
       id="path827"
       d="m 91.358673,245.99316 8.016588,4.85796 6.971929,-8.59437 2.68845,-1.6346"
       style="fill:none;stroke:#000000;stroke-width:1.18769097;stroke-linecap:round;stroke-linejoin:miter;stroke-miterlimit:4;stroke-dasharray:none;stroke-opacity:1" />
    <path
       sodipodi:nodetypes="cccc"
       inkscape:connector-curvature="0"
       id="path829"
       d="m 91.622133,266.11694 -10.33925,-2.92835 -7.781125,-3.21445 0.345487,-8.18114"
       style="fill:none;stroke:#000000;stroke-width:1.18769097;stroke-linecap:round;stroke-linejoin:miter;stroke-miterlimit:4;stroke-dasharray:none;stroke-opacity:1" />
    <ellipse
       ry="18.816753"
       rx="18.966393"
       cy="232.98343"
       cx="56.358692"
       id="path10"
       style="opacity:1;fill:#ffe6d5;fill-opacity:1;stroke:#000000;stroke-width:1.56265259;stroke-linecap:square;stroke-linejoin:round;stroke-miterlimit:4;stroke-dasharray:none;stroke-dashoffset:0;stroke-opacity:1"
       transform="rotate(-5.433762)" />
    <ellipse
       ry="4.1935306"
       rx="2.0985756"
       cy="230.30833"
       cx="53.970509"
       id="path866"
       style="opacity:1;fill:#000000;fill-opacity:1;stroke:#000000;stroke-width:0.88117027;stroke-linecap:round;stroke-linejoin:round;stroke-miterlimit:4;stroke-dasharray:none;stroke-dashoffset:0;stroke-opacity:1"
       transform="rotate(-5.433762)" />
    <path
       sodipodi:nodetypes="cscc"
       inkscape:connector-curvature="0"
       id="path893"
       d="m 77.977893,217.48313 c 0,0 -1.52095,0.7299 -2.409537,0.89082 -0.860014,0.15574 -3.488819,0.25542 -3.488819,0.25542 v 0"
       style="fill:none;stroke:#000000;stroke-width:0.59384549;stroke-linecap:butt;stroke-linejoin:miter;stroke-miterlimit:4;stroke-dasharray:none;stroke-opacity:1" />
    <ellipse
       ry="4.1935306"
       rx="2.0985756"
       cy="229.70975"
       cx="61.15321"
       id="path866-6"
       style="opacity:1;fill:#000000;fill-opacity:1;stroke:#000000;stroke-width:0.88117027;stroke-linecap:round;stroke-linejoin:round;stroke-miterlimit:4;stroke-dasharray:none;stroke-dashoffset:0;stroke-opacity:1"
       transform="rotate(-5.433762)" />
    <path
       sodipodi:nodetypes="cscc"
       inkscape:connector-curvature="0"
       id="path893-7"
       d="m 84.656753,216.5311 c 0,0 -1.72033,-0.66063 -2.60892,-0.49971 -0.86001,0.15574 -2.6369,1.44966 -2.6369,1.44966 v 0"
       style="fill:none;stroke:#000000;stroke-width:0.59384549;stroke-linecap:butt;stroke-linejoin:miter;stroke-miterlimit:4;stroke-dasharray:none;stroke-opacity:1" />
    <path
       sodipodi:nodetypes="cscacsc"
       inkscape:connector-curvature="0"
       id="path941"
       d="m 69.820539,209.95714 c -0.0987,0.53169 -4.352226,9.57665 -3.402812,17.6023 0.963194,8.14219 7.123011,16.76668 7.123011,16.76668 0,0 -5.967077,-2.45679 -8.242365,-4.63923 -2.768052,-2.65508 -6.056663,-9.78373 -6.056663,-9.78373 0,0 0.827157,-8.04558 2.627624,-11.59309 1.845088,-3.63545 7.951205,-8.35293 7.951205,-8.35293 z"
       style="opacity:0.1;fill:#000000;stroke:#000000;stroke-width:0.10474773px;stroke-linecap:butt;stroke-linejoin:miter;stroke-opacity:1" />
    <path
       sodipodi:nodetypes="ccccccc"
       inkscape:connector-curvature="0"
       id="path943"
       d="m 63.918932,237.86515 5.660217,6.50122 -2.602005,12.24446 0.447327,15.27232 -7.815254,-0.17213 0.8309,-15.87811 z"
       style="opacity:0.1;fill:#000000;stroke:#000000;stroke-width:0.10474773px;stroke-linecap:butt;stroke-linejoin:miter;stroke-opacity:1" />
    <path
       style="fill:none;stroke:#000000;stroke-width:0.60000002;stroke-linecap:butt;stroke-linejoin:miter;stroke-miterlimit:4;stroke-dasharray:none;stroke-opacity:1"
       d="m 80.326773,233.88977 c 6.89851,1.32064 9.07977,-0.65504 9.07977,-0.65504"
       id="path31762"
       inkscape:connector-curvature="0"
       sodipodi:nodetypes="cc" />
    <g
       id="g31808"
       transform="matrix(0.14402859,0,0,0.14402859,69.139772,210.03181)"
       style="fill:#000000;stroke:#000000">
      <g
         id="g31764"
         style="fill:#000000;stroke:#000000" />
      <path
         id="path31766"
         d="M 327.895,140.759 31.826,454.4 62.649,486.236 347.055,156.539 Z"
         inkscape:connector-curvature="0"
         style="fill:#000000;stroke:#000000;stroke-width:4.16583967;stroke-miterlimit:4;stroke-dasharray:none" />
      <path
         id="path31768"
         d="m 355.092,141.118 -11.827,-9.543 0.307,5.703 24.781,-24.802 -4.854,0.481 10.127,6.779 -0.809,-5.662 -23.081,27.556 z m 22.805,-27.761 -12.749,-8.54 -2.233,2.243 -27.801,27.822 3.318,2.683 11.827,9.543 2.939,2.355 2.416,-2.877 25.825,-30.832 -3.543,-2.396 z"
         inkscape:connector-curvature="0"
         style="fill:#000000;stroke:#000000" />
      <path
         id="path31770"
         d="m 330.721,250.317 7.281,14.684 16.19,2.355 -11.735,11.428 2.786,16.159 -14.521,-7.639 -14.469,7.639 2.745,-16.159 -11.704,-11.428 16.179,-2.355 z"
         inkscape:connector-curvature="0"
         style="fill:#000000;stroke:#000000" />
      <path
         id="path31772"
         d="m 233.134,138.117 8.622,15.739 15.76,8.643 -15.76,8.601 -8.622,15.78 -8.612,-15.78 -15.78,-8.601 15.78,-8.643 z"
         inkscape:connector-curvature="0"
         style="fill:#000000;stroke:#000000" />
      <path
         id="path31774"
         d="m 437.094,71.496 7.588,28.846 28.672,7.394 -27.73,5.929 -8.53,30.372 -5.735,-30.812 -30.536,-5.489 29.594,-7.394 z"
         inkscape:connector-curvature="0"
         style="fill:#000000;stroke:#000000" />
      <path
         id="path31776"
         d="m 406.64,140.339 13.854,52.685 0.574,2.161 2.181,0.583 52.337,13.517 0.164,-7.475 -52.921,11.326 -0.635,2.222 -15.534,55.378 7.465,0.338 -10.476,-56.218 -0.481,-2.621 -2.622,-0.461 -55.757,-9.984 0.256,7.495 56.361,-14.101 0.533,-2.284 12.155,-52.685 -7.454,0.123 z m -9.369,47.965 -54.077,13.517 0.256,7.516 55.747,9.984 -3.103,-3.082 10.476,56.218 7.465,0.338 15.534,-55.378 -2.887,2.724 50.657,-10.844 0.154,-7.465 -52.337,-13.517 2.765,2.744 -13.854,-52.685 -7.465,0.123 -12.155,52.685 2.826,-2.877 z"
         inkscape:connector-curvature="0"
         style="fill:#000000;stroke:#000000" />
      <path
         id="path31780"
         d="m 466.32,247.716 4.905,8.96 8.95,4.905 -8.95,4.894 -4.905,8.94 -4.894,-8.94 -8.95,-4.894 8.95,-4.905 z"
         inkscape:connector-curvature="0"
         style="fill:#000000;stroke:#000000" />
      <path
         id="path31782"
         d="m 381.461,25.764 7.834,14.315 14.336,7.824 -14.336,7.834 -7.834,14.326 -7.834,-14.326 -14.326,-7.834 14.326,-7.824 z"
         inkscape:connector-curvature="0"
         style="fill:#000000;stroke:#000000" />
      <path
         id="path31784"
         d="m 242.923,47.319 4.874,8.94 8.95,4.925 -8.95,4.895 -4.874,8.98 -4.915,-8.981 -8.96,-4.895 8.96,-4.925 z"
         inkscape:connector-curvature="0"
         style="fill:#000000;stroke:#000000" />
      <path
         id="path31786"
         d="m 294.994,79.063 8.478,17.121 18.873,2.775 -13.68,13.322 3.236,18.78 -16.906,-8.858 -16.865,8.858 3.216,-18.78 -13.671,-13.322 18.862,-2.775 z"
         inkscape:connector-curvature="0"
         style="fill:#000000;stroke:#000000" />
    </g>
    <g
       id="layer1-7"
       inkscape:label="Layer 1"
       transform="matrix(-0.38456156,0,0,0.38456156,72.086047,192.94212)">
      <path
         inkscape:connector-curvature="0"
         id="path831-3"
         d="m 131.82442,201.25887 4.81085,63.13814"
         style="fill:none;stroke:#000000;stroke-width:3;stroke-linecap:round;stroke-linejoin:miter;stroke-miterlimit:4;stroke-dasharray:none;stroke-opacity:1" />
      <path
         inkscape:connector-curvature="0"
         id="path833-6"
         d="m 88.526752,199.71954 -11.22531,64.14294"
         style="fill:none;stroke:#000000;stroke-width:3;stroke-linecap:round;stroke-linejoin:miter;stroke-miterlimit:4;stroke-dasharray:none;stroke-opacity:1" />
      <path
         sodipodi:nodetypes="cccc"
         inkscape:connector-curvature="0"
         id="path827-6"
         d="m 85.949903,123.2148 -13.098966,21.50469 -7.042458,12.87936 -17.626514,-9.19207"
         style="fill:none;stroke:#000000;stroke-width:3;stroke-linecap:round;stroke-linejoin:miter;stroke-miterlimit:4;stroke-dasharray:none;stroke-opacity:1" />
      <path
         sodipodi:nodetypes="ccccccc"
         inkscape:connector-curvature="0"
         id="path825-3"
         d="m 151.66542,111.80242 5.47249,59.33836 -2.7294,40.07911 -80.333237,-4.15814 9.987668,-40.31745 -2.934011,-66.66029 z"
         style="fill:#5a2ca0;stroke:#000000;stroke-width:3.05478716;stroke-linecap:butt;stroke-linejoin:miter;stroke-miterlimit:4;stroke-dasharray:none;stroke-opacity:1" />
      <ellipse
         transform="scale(-1,1)"
         ry="47.529419"
         rx="47.907394"
         cy="85.726349"
         cx="-117.77063"
         id="path10-9"
         style="opacity:1;fill:#ffe6d5;fill-opacity:1;stroke:#000000;stroke-width:3.94711924;stroke-linecap:square;stroke-linejoin:round;stroke-miterlimit:4;stroke-dasharray:none;stroke-dashoffset:0;stroke-opacity:1" />
      <path
         sodipodi:nodetypes="cccc"
         inkscape:connector-curvature="0"
         id="path829-5"
         d="m 150.27658,125.03587 16.67385,22.92448 5.42205,16.3003 -13.71249,14.75102"
         style="fill:none;stroke:#000000;stroke-width:3;stroke-linecap:round;stroke-linejoin:miter;stroke-miterlimit:4;stroke-dasharray:none;stroke-opacity:1" />
      <ellipse
         transform="matrix(-0.98436345,-0.17614936,-0.17614936,0.98436345,0,0)"
         ry="10.59248"
         rx="5.3008127"
         cy="63.471432"
         cx="-119.44862"
         id="path866-4"
         style="opacity:1;fill:#000000;fill-opacity:1;stroke:#000000;stroke-width:2.22575665;stroke-linecap:round;stroke-linejoin:round;stroke-miterlimit:4;stroke-dasharray:none;stroke-dashoffset:0;stroke-opacity:1" />
      <path
         sodipodi:nodetypes="cscc"
         inkscape:connector-curvature="0"
         id="path893-8"
         d="m 103.24375,66.827702 c 0,0 4.46779,-1.306115 6.67132,-0.71667 2.13265,0.570484 6.33726,4.196466 6.33726,4.196466 v 0"
         style="fill:none;stroke:#000000;stroke-width:1.5;stroke-linecap:butt;stroke-linejoin:miter;stroke-miterlimit:4;stroke-dasharray:none;stroke-opacity:1" />
      <ellipse
         transform="matrix(-0.98436345,-0.17614936,-0.17614936,0.98436345,0,0)"
         ry="10.59248"
         rx="5.3008132"
         cy="61.959522"
         cx="-101.30576"
         id="path866-6-1"
         style="opacity:1;fill:#000000;fill-opacity:1;stroke:#000000;stroke-width:2.22575665;stroke-linecap:round;stroke-linejoin:round;stroke-miterlimit:4;stroke-dasharray:none;stroke-dashoffset:0;stroke-opacity:1" />
      <path
         sodipodi:nodetypes="cscc"
         inkscape:connector-curvature="0"
         id="path893-7-2"
         d="m 85.026192,62.415773 c 0,0 4.467792,-1.306114 6.671337,-0.716667 2.132656,0.570488 6.337268,4.196468 6.337268,4.196468 v 0"
         style="fill:none;stroke:#000000;stroke-width:1.5;stroke-linecap:butt;stroke-linejoin:miter;stroke-miterlimit:4;stroke-dasharray:none;stroke-opacity:1" />
      <path
         sodipodi:nodetypes="cscacsc"
         inkscape:connector-curvature="0"
         id="path941-9"
         d="m 134.77956,41.881101 c 0.37525,1.313381 13.23458,23.03999 12.7669,43.448009 -0.47447,20.70436 -13.90083,43.86449 -13.90083,43.86449 0,0 14.41697,-7.60502 19.61631,-13.63709 6.32536,-7.33844 12.88965,-26.050407 12.88965,-26.050407 0,0 -4.00438,-20.033213 -9.38026,-28.522946 -5.50917,-8.700217 -21.99177,-19.102056 -21.99177,-19.102056 z"
         style="opacity:0.1;fill:#000000;stroke:#000000;stroke-width:0.26458332px;stroke-linecap:butt;stroke-linejoin:miter;stroke-opacity:1" />
      <path
         sodipodi:nodetypes="ccccccc"
         inkscape:connector-curvature="0"
         id="path943-3"
         d="m 150.27658,125.03587 -16.63095,4.15773 3.3911,41.95506 -5.65896,38.1759 19.65477,1.88988 2.63264,-40.07519 z"
         style="opacity:0.1;fill:#000000;stroke:#000000;stroke-width:0.26458332px;stroke-linecap:butt;stroke-linejoin:miter;stroke-opacity:1" />
      <ellipse
         transform="matrix(0.9647751,0.26307604,-0.24318365,0.96998026,0,0)"
         ry="18.583645"
         rx="9.0369539"
         cy="49.26812"
         cx="121.84463"
         id="path1023"
         style="opacity:1;fill:none;fill-opacity:1;stroke:#000000;stroke-width:1.50015855;stroke-linecap:round;stroke-linejoin:round;stroke-miterlimit:4;stroke-dasharray:none;stroke-dashoffset:0;stroke-opacity:1" />
      <ellipse
         transform="matrix(0.9647751,0.26307604,-0.24318365,0.96998026,0,0)"
         ry="18.583645"
         rx="9.0369549"
         cy="50.709106"
         cx="99.7686"
         id="path1023-5"
         style="opacity:1;fill:none;fill-opacity:1;stroke:#000000;stroke-width:1.50015855;stroke-linecap:round;stroke-linejoin:round;stroke-miterlimit:4;stroke-dasharray:none;stroke-dashoffset:0;stroke-opacity:1" />
      <path
         inkscape:connector-curvature="0"
         id="path1586"
         d="m 113.91092,84.520724 c 50.72711,-2.138156 50.72711,-2.138156 50.72711,-2.138156 v 0.267269"
         style="fill:none;stroke:#000000;stroke-width:1.53602147;stroke-linecap:round;stroke-linejoin:miter;stroke-miterlimit:4;stroke-dasharray:none;stroke-opacity:1" />
      <path
         inkscape:connector-curvature="0"
         id="path1588"
         d="m 92.475254,80.244411 3.741775,1.069078"
         style="fill:none;stroke:#000000;stroke-width:1.5;stroke-linecap:butt;stroke-linejoin:miter;stroke-miterlimit:4;stroke-dasharray:none;stroke-opacity:1" />
    </g>
    <path
       style="fill:none;stroke:#000000;stroke-width:0.60000002;stroke-linecap:butt;stroke-linejoin:miter;stroke-miterlimit:4;stroke-dasharray:none;stroke-opacity:1"
       d="m 33.073989,234.39296 c -6.898496,1.32064 -9.079756,-0.65504 -9.079756,-0.65504"
       id="path31762-9"
       inkscape:connector-curvature="0"
       sodipodi:nodetypes="cc" />
    <path
       style="opacity:0.1;fill:#ffdd55;fill-opacity:1;stroke:#ffcc00;stroke-width:0.30304578;stroke-linecap:butt;stroke-linejoin:round;stroke-miterlimit:4;stroke-dasharray:none;stroke-dashoffset:0;stroke-opacity:1"
       d="m 128.34322,245.83988 c -0.0391,-0.1063 -0.27115,-1.28938 -0.51574,-2.62907 -0.24458,-1.33969 -0.48819,-2.50617 -0.54135,-2.59219 -0.0532,-0.086 -1.18441,-0.35274 -2.51389,-0.59274 -1.32949,-0.24 -2.48106,-0.45764 -2.55906,-0.48364 -0.078,-0.026 0.92859,-0.30925 2.23686,-0.62945 1.30827,-0.3202 2.44732,-0.64995 2.53121,-0.73277 0.0839,-0.0828 0.40977,-1.27799 0.72418,-2.65592 0.3144,-1.37793 0.58214,-2.49044 0.59496,-2.47224 0.0128,0.0182 0.31174,1.14559 0.66426,2.50533 0.35253,1.35973 0.70772,2.53961 0.78931,2.62195 0.0816,0.0823 1.18554,0.41308 2.4532,0.73499 1.26767,0.3219 2.305,0.6173 2.3052,0.65642 2e-4,0.0391 -0.97685,0.27361 -2.17121,0.52105 -1.19436,0.24745 -2.24152,0.51612 -2.32702,0.59704 -0.0855,0.0809 -0.48046,1.31653 -0.87768,2.74582 -0.39721,1.42928 -0.75417,2.51172 -0.79323,2.40542 z"
       id="path32732"
       inkscape:connector-curvature="0" />
    <path
       style="opacity:0.1;fill:#ffcc00;fill-opacity:1;stroke:#ffcc00;stroke-width:0.30304578;stroke-linecap:butt;stroke-linejoin:round;stroke-miterlimit:4;stroke-dasharray:none;stroke-dashoffset:0;stroke-opacity:1"
       d="m 128.3407,245.83564 c -0.0387,-0.10397 -0.27439,-1.32443 -0.52386,-2.71214 -0.3874,-2.15496 -0.49258,-2.53939 -0.72085,-2.63464 -0.147,-0.0613 -1.31698,-0.29635 -2.59994,-0.52227 -1.28297,-0.22591 -2.34776,-0.42584 -2.36619,-0.44427 -0.0184,-0.0185 1.03126,-0.29412 2.33267,-0.61262 1.3014,-0.3185 2.43535,-0.64686 2.51989,-0.72968 0.0845,-0.0828 0.40492,-1.26276 0.71197,-2.62209 0.30705,-1.35932 0.56979,-2.48302 0.58388,-2.4971 0.0141,-0.0141 0.32258,1.11614 0.68555,2.51159 0.36297,1.39546 0.72262,2.58571 0.79922,2.64502 0.0766,0.0593 1.17646,0.372 2.44412,0.69489 1.26767,0.3229 2.305,0.6191 2.3052,0.65822 2e-4,0.0391 -0.97685,0.27361 -2.17121,0.52105 -1.19436,0.24745 -2.24169,0.51612 -2.3274,0.59704 -0.0857,0.0809 -0.48139,1.31462 -0.8793,2.74157 -0.39791,1.42695 -0.75509,2.50939 -0.79375,2.40543 z"
       id="path32734"
       inkscape:connector-curvature="0" />
    <path
       style="opacity:0.1;fill:#ffcc00;fill-opacity:1;stroke:#ffcc00;stroke-width:0.30304578;stroke-linecap:butt;stroke-linejoin:round;stroke-miterlimit:4;stroke-dasharray:none;stroke-dashoffset:0;stroke-opacity:1"
       d="m 128.3407,245.83564 c -0.0387,-0.10397 -0.27439,-1.32443 -0.52386,-2.71214 -0.3874,-2.15496 -0.49258,-2.53939 -0.72085,-2.63464 -0.147,-0.0613 -1.31698,-0.29635 -2.59994,-0.52227 -1.28297,-0.22591 -2.34776,-0.42584 -2.36619,-0.44427 -0.0184,-0.0185 1.03126,-0.29412 2.33267,-0.61262 1.3014,-0.3185 2.43535,-0.64686 2.51989,-0.72968 0.0845,-0.0828 0.40492,-1.26276 0.71197,-2.62209 0.30705,-1.35932 0.57116,-2.48438 0.58691,-2.50013 0.0157,-0.0157 0.32406,1.11431 0.68513,2.51124 0.36108,1.39694 0.71936,2.58856 0.79619,2.64805 0.0768,0.0595 1.17688,0.37235 2.44454,0.69524 1.26767,0.3229 2.305,0.6191 2.3052,0.65822 2e-4,0.0391 -0.97685,0.27361 -2.17121,0.52105 -1.19436,0.24745 -2.24169,0.51612 -2.3274,0.59704 -0.0857,0.0809 -0.48139,1.31462 -0.8793,2.74157 -0.39791,1.42695 -0.75509,2.50939 -0.79375,2.40543 z"
       id="path32736"
       inkscape:connector-curvature="0" />
    <path
       style="opacity:0.1;fill:#ffcc00;fill-opacity:1;stroke:#ffcc00;stroke-width:0.30304578;stroke-linecap:butt;stroke-linejoin:round;stroke-miterlimit:4;stroke-dasharray:none;stroke-dashoffset:0;stroke-opacity:1"
       d="m 128.34322,245.83988 c -0.0391,-0.1063 -0.27115,-1.28938 -0.51574,-2.62907 -0.24458,-1.33969 -0.48819,-2.50617 -0.54135,-2.59219 -0.0532,-0.086 -1.18441,-0.35274 -2.51389,-0.59274 -1.32949,-0.24 -2.48106,-0.45764 -2.55906,-0.48364 -0.078,-0.026 0.92859,-0.30925 2.23686,-0.62945 1.30827,-0.3202 2.44784,-0.64995 2.53238,-0.73277 0.0845,-0.0828 0.40492,-1.26276 0.71197,-2.62209 0.30705,-1.35932 0.57017,-2.48339 0.58471,-2.49794 0.0146,-0.0145 0.31852,1.09763 0.6755,2.4715 0.35698,1.37387 0.71625,2.56531 0.79838,2.64765 0.0821,0.0823 1.18652,0.41308 2.45418,0.73499 1.26767,0.3219 2.305,0.6173 2.3052,0.65642 2e-4,0.0391 -0.97685,0.27361 -2.17121,0.52105 -1.19436,0.24745 -2.24152,0.51612 -2.32702,0.59704 -0.0855,0.0809 -0.48046,1.31653 -0.87768,2.74582 -0.39721,1.42928 -0.75417,2.51172 -0.79323,2.40542 z"
       id="path32738"
       inkscape:connector-curvature="0" />
    <path
       style="opacity:0.1;fill:#ffcc00;fill-opacity:1;stroke:#ffcc00;stroke-width:0.30304578;stroke-linecap:butt;stroke-linejoin:round;stroke-miterlimit:4;stroke-dasharray:none;stroke-dashoffset:0;stroke-opacity:1"
       d="m 128.34322,245.83988 c -0.0391,-0.1063 -0.27115,-1.28938 -0.51574,-2.62907 -0.24458,-1.33969 -0.48819,-2.50617 -0.54135,-2.59219 -0.0532,-0.086 -1.18441,-0.35274 -2.51389,-0.59274 -1.32949,-0.24 -2.48106,-0.45764 -2.55906,-0.48364 -0.078,-0.026 0.92859,-0.30925 2.23686,-0.62945 1.30827,-0.3202 2.44784,-0.64995 2.53238,-0.73277 0.0845,-0.0828 0.40492,-1.26276 0.71197,-2.62209 0.30705,-1.35932 0.57017,-2.48339 0.58471,-2.49794 0.0146,-0.0145 0.31852,1.09763 0.6755,2.4715 0.35698,1.37387 0.71625,2.56531 0.79838,2.64765 0.0821,0.0823 1.18652,0.41308 2.45418,0.73499 1.26767,0.3219 2.305,0.6173 2.3052,0.65642 2e-4,0.0391 -0.97685,0.27361 -2.17121,0.52105 -1.19436,0.24745 -2.24152,0.51612 -2.32702,0.59704 -0.0855,0.0809 -0.48046,1.31653 -0.87768,2.74582 -0.39721,1.42928 -0.75417,2.51172 -0.79323,2.40542 z"
       id="path32740"
       inkscape:connector-curvature="0" />
    <path
       style="opacity:0.1;fill:#ffcc00;fill-opacity:1;stroke:#ffcc00;stroke-width:0.30304578;stroke-linecap:butt;stroke-linejoin:round;stroke-miterlimit:4;stroke-dasharray:none;stroke-dashoffset:0;stroke-opacity:1"
       d="m 128.34322,245.83988 c -0.0391,-0.1063 -0.27115,-1.28938 -0.51574,-2.62907 -0.24458,-1.33969 -0.48747,-2.50499 -0.53973,-2.58956 -0.0523,-0.0846 -1.22428,-0.35654 -2.60448,-0.60437 -1.3802,-0.24784 -2.52689,-0.46804 -2.5482,-0.48935 -0.0213,-0.0213 1.02605,-0.29933 2.32746,-0.61783 1.3014,-0.3185 2.43355,-0.64686 2.51588,-0.72968 0.11491,-0.11559 1.21796,-4.58998 1.26249,-5.12113 0.0114,-0.13522 0.21312,0.58048 0.85505,3.03284 0.27897,1.06573 0.57452,2.00425 0.65679,2.08559 0.0823,0.0813 1.18687,0.41208 2.45468,0.73499 1.2678,0.32291 2.30514,0.62204 2.3052,0.66474 5e-5,0.0427 -0.97711,0.27644 -2.17147,0.51943 -1.19436,0.243 -2.24152,0.50874 -2.32702,0.59054 -0.0855,0.0818 -0.48046,1.31815 -0.87768,2.74744 -0.39721,1.42928 -0.75417,2.51172 -0.79323,2.40542 z"
       id="path32742"
       inkscape:connector-curvature="0" />
    <path
       style="opacity:1;fill:#ffcc00;fill-opacity:1;stroke:#ffcc00;stroke-width:0.30304578;stroke-linecap:butt;stroke-linejoin:round;stroke-miterlimit:4;stroke-dasharray:none;stroke-dashoffset:0;stroke-opacity:1"
       d="m 128.34352,245.84069 c -0.0392,-0.10674 -0.27145,-1.29019 -0.51604,-2.62988 -0.24458,-1.33969 -0.48747,-2.50499 -0.53973,-2.58956 -0.0523,-0.0846 -1.22428,-0.35654 -2.60448,-0.60437 -1.3802,-0.24784 -2.52689,-0.46804 -2.5482,-0.48935 -0.0213,-0.0213 1.02605,-0.29933 2.32746,-0.61783 1.3014,-0.3185 2.43355,-0.64686 2.51588,-0.72968 0.0823,-0.0828 0.40202,-1.26206 0.71042,-2.62053 0.30839,-1.35847 0.57332,-2.48254 0.58872,-2.49794 0.0154,-0.0154 0.32007,1.09607 0.67705,2.46994 0.35698,1.37387 0.71625,2.56449 0.79838,2.64583 0.0821,0.0813 1.18663,0.41208 2.45444,0.73499 1.2678,0.32291 2.30514,0.62204 2.3052,0.66474 5e-5,0.0427 -0.97711,0.27674 -2.17147,0.52009 -1.19436,0.24335 -2.2317,0.49558 -2.3052,0.5605 -0.0735,0.0649 -0.46831,1.30134 -0.87736,2.74758 -0.40906,1.44625 -0.77583,2.54221 -0.81507,2.43547 z"
       id="path32744"
       inkscape:connector-curvature="0" />
  </g>
</svg>
