<svg xmlns="http://www.w3.org/2000/svg" xmlns:xlink="http://www.w3.org/1999/xlink" version="1.1" class="marks" width="666" height="484" viewBox="0 0 666 484"><rect width="666" height="484" fill="#fffff8"/><g fill="none" stroke-miterlimit="10" transform="translate(52,36)"><g class="mark-group role-frame root" role="graphics-object" aria-roledescription="group mark container"><g transform="translate(0,0)"><path class="background" aria-hidden="true" d="M0,0h600v400h-600Z"/><g><g class="mark-group role-axis" role="graphics-symbol" aria-roledescription="axis" aria-label="X-axis titled 'Number of examples (cumulative)' for a linear scale with values from 500 to 6,000"><g transform="translate(0.5,400.5)"><path class="background" aria-hidden="true" d="M0,0h0v0h0Z" pointer-events="none"/><g><g class="mark-rule role-axis-tick" pointer-events="none"><line transform="translate(0,0)" x2="0" y2="5" stroke="#888" stroke-width="1" opacity="1"/><line transform="translate(55,0)" x2="0" y2="5" stroke="#888" stroke-width="1" opacity="1"/><line transform="translate(109,0)" x2="0" y2="5" stroke="#888" stroke-width="1" opacity="1"/><line transform="translate(164,0)" x2="0" y2="5" stroke="#888" stroke-width="1" opacity="1"/><line transform="translate(218,0)" x2="0" y2="5" stroke="#888" stroke-width="1" opacity="1"/><line transform="translate(273,0)" x2="0" y2="5" stroke="#888" stroke-width="1" opacity="1"/><line transform="translate(327,0)" x2="0" y2="5" stroke="#888" stroke-width="1" opacity="1"/><line transform="translate(382,0)" x2="0" y2="5" stroke="#888" stroke-width="1" opacity="1"/><line transform="translate(436,0)" x2="0" y2="5" stroke="#888" stroke-width="1" opacity="1"/><line transform="translate(491,0)" x2="0" y2="5" stroke="#888" stroke-width="1" opacity="1"/><line transform="translate(545,0)" x2="0" y2="5" stroke="#888" stroke-width="1" opacity="1"/><line transform="translate(600,0)" x2="0" y2="5" stroke="#888" stroke-width="1" opacity="1"/></g><g class="mark-text role-axis-label" pointer-events="none"><text text-anchor="start" transform="translate(0,18)" font-family="CMU Sans Serif" font-size="14px" fill="#000" opacity="1">500</text><text text-anchor="middle" transform="translate(54.54545454545455,18)" font-family="CMU Sans Serif" font-size="14px" fill="#000" opacity="1">1,000</text><text text-anchor="middle" transform="translate(109.0909090909091,18)" font-family="CMU Sans Serif" font-size="14px" fill="#000" opacity="1">1,500</text><text text-anchor="middle" transform="translate(163.63636363636363,18)" font-family="CMU Sans Serif" font-size="14px" fill="#000" opacity="1">2,000</text><text text-anchor="middle" transform="translate(218.1818181818182,18)" font-family="CMU Sans Serif" font-size="14px" fill="#000" opacity="1">2,500</text><text text-anchor="middle" transform="translate(272.7272727272727,18)" font-family="CMU Sans Serif" font-size="14px" fill="#000" opacity="1">3,000</text><text text-anchor="middle" transform="translate(327.27272727272725,18)" font-family="CMU Sans Serif" font-size="14px" fill="#000" opacity="1">3,500</text><text text-anchor="middle" transform="translate(381.8181818181818,18)" font-family="CMU Sans Serif" font-size="14px" fill="#000" opacity="1">4,000</text><text text-anchor="middle" transform="translate(436.3636363636364,18)" font-family="CMU Sans Serif" font-size="14px" fill="#000" opacity="1">4,500</text><text text-anchor="middle" transform="translate(490.90909090909093,18)" font-family="CMU Sans Serif" font-size="14px" fill="#000" opacity="1">5,000</text><text text-anchor="middle" transform="translate(545.4545454545454,18)" font-family="CMU Sans Serif" font-size="14px" fill="#000" opacity="1">5,500</text><text text-anchor="end" transform="translate(600,18)" font-family="CMU Sans Serif" font-size="14px" fill="#000" opacity="1">6,000</text></g><g class="mark-rule role-axis-domain" pointer-events="none"><line transform="translate(0,0)" x2="600" y2="0" stroke="#888" stroke-width="1" opacity="1"/></g><g class="mark-text role-axis-title" pointer-events="none"><text text-anchor="middle" transform="translate(300,39)" font-family="CMU Sans Serif" font-size="18px" font-weight="bold" fill="#000" opacity="1">Number of examples (cumulative)</text></g></g><path class="foreground" aria-hidden="true" d="" pointer-events="none" display="none"/></g></g><g class="mark-group role-axis" role="graphics-symbol" aria-roledescription="axis" aria-label="Y-axis titled 'Inter-annotator agreement' for a linear scale with values from 0.0 to 1.0"><g transform="translate(0.5,0.5)"><path class="background" aria-hidden="true" d="M0,0h0v0h0Z" pointer-events="none"/><g><g class="mark-rule role-axis-tick" pointer-events="none"><line transform="translate(0,400)" x2="-5" y2="0" stroke="#888" stroke-width="1" opacity="1"/><line transform="translate(0,360)" x2="-5" y2="0" stroke="#888" stroke-width="1" opacity="1"/><line transform="translate(0,320)" x2="-5" y2="0" stroke="#888" stroke-width="1" opacity="1"/><line transform="translate(0,280)" x2="-5" y2="0" stroke="#888" stroke-width="1" opacity="1"/><line transform="translate(0,240)" x2="-5" y2="0" stroke="#888" stroke-width="1" opacity="1"/><line transform="translate(0,200)" x2="-5" y2="0" stroke="#888" stroke-width="1" opacity="1"/><line transform="translate(0,160)" x2="-5" y2="0" stroke="#888" stroke-width="1" opacity="1"/><line transform="translate(0,120)" x2="-5" y2="0" stroke="#888" stroke-width="1" opacity="1"/><line transform="translate(0,80)" x2="-5" y2="0" stroke="#888" stroke-width="1" opacity="1"/><line transform="translate(0,40)" x2="-5" y2="0" stroke="#888" stroke-width="1" opacity="1"/><line transform="translate(0,0)" x2="-5" y2="0" stroke="#888" stroke-width="1" opacity="1"/></g><g class="mark-text role-axis-label" pointer-events="none"><text text-anchor="end" transform="translate(-7,404)" font-family="CMU Sans Serif" font-size="14px" fill="#000" opacity="1">0.0</text><text text-anchor="end" transform="translate(-7,364)" font-family="CMU Sans Serif" font-size="14px" fill="#000" opacity="1">0.1</text><text text-anchor="end" transform="translate(-7,324)" font-family="CMU Sans Serif" font-size="14px" fill="#000" opacity="1">0.2</text><text text-anchor="end" transform="translate(-7,284)" font-family="CMU Sans Serif" font-size="14px" fill="#000" opacity="1">0.3</text><text text-anchor="end" transform="translate(-7,244)" font-family="CMU Sans Serif" font-size="14px" fill="#000" opacity="1">0.4</text><text text-anchor="end" transform="translate(-7,204)" font-family="CMU Sans Serif" font-size="14px" fill="#000" opacity="1">0.5</text><text text-anchor="end" transform="translate(-7,164)" font-family="CMU Sans Serif" font-size="14px" fill="#000" opacity="1">0.6</text><text text-anchor="end" transform="translate(-7,124.00000000000001)" font-family="CMU Sans Serif" font-size="14px" fill="#000" opacity="1">0.7</text><text text-anchor="end" transform="translate(-7,83.99999999999999)" font-family="CMU Sans Serif" font-size="14px" fill="#000" opacity="1">0.8</text><text text-anchor="end" transform="translate(-7,43.99999999999999)" font-family="CMU Sans Serif" font-size="14px" fill="#000" opacity="1">0.9</text><text text-anchor="end" transform="translate(-7,4)" font-family="CMU Sans Serif" font-size="14px" fill="#000" opacity="1">1.0</text></g><g class="mark-rule role-axis-domain" pointer-events="none"><line transform="translate(0,400)" x2="0" y2="-400" stroke="#888" stroke-width="1" opacity="1"/></g><g class="mark-text role-axis-title" pointer-events="none"><text text-anchor="middle" transform="translate(-28.8896484375,200) rotate(-90) translate(0,-4)" font-family="CMU Sans Serif" font-size="18px" font-weight="bold" fill="#000" opacity="1">Inter-annotator agreement</text></g></g><path class="foreground" aria-hidden="true" d="" pointer-events="none" display="none"/></g></g><g class="mark-group role-scope layer_0_pathgroup" role="graphics-object" aria-roledescription="group mark container"><g transform="translate(0,0)"><path class="background" aria-hidden="true" d="M0,0h600v400h-600Z"/><g><g class="mark-line role-mark layer_0_marks" role="graphics-object" aria-roledescription="line mark container"><path aria-label="variable: Cohen's κ (all tokens); Number of examples (cumulative): 500; Inter-annotator agreement: 0.42" role="graphics-symbol" aria-roledescription="line mark" d="M0,232L57.164,216L175.964,148L317.455,120L392.291,92L600,64" stroke="#a00000" stroke-width="2" stroke-dasharray="1,0"/></g></g><path class="foreground" aria-hidden="true" d="" display="none"/></g><g transform="translate(0,0)"><path class="background" aria-hidden="true" d="M0,0h600v400h-600Z"/><g><g class="mark-line role-mark layer_0_marks" role="graphics-object" aria-roledescription="line mark container"><path aria-label="variable: Cohen's κ (annotated); Number of examples (cumulative): 500; Inter-annotator agreement: 0.25" role="graphics-symbol" aria-roledescription="line mark" d="M0,300L57.164,284L175.964,232L317.455,188L392.291,160L600,132" stroke="#a00000" stroke-width="2" stroke-dasharray="4,2"/></g></g><path class="foreground" aria-hidden="true" d="" display="none"/></g><g transform="translate(0,0)"><path class="background" aria-hidden="true" d="M0,0h600v400h-600Z"/><g><g class="mark-line role-mark layer_0_marks" role="graphics-object" aria-roledescription="line mark container"><path aria-label="variable: F1-score; Number of examples (cumulative): 500; Inter-annotator agreement: 0.64" role="graphics-symbol" aria-roledescription="line mark" d="M0,144L57.164,128L175.964,80L317.455,44L392.291,32L600,16" stroke="#a00000" stroke-width="2" stroke-dasharray="2,1"/></g></g><path class="foreground" aria-hidden="true" d="" display="none"/></g></g><g class="mark-symbol role-mark layer_1_marks" role="graphics-object" aria-roledescription="symbol mark container"><path aria-label="variable: Cohen's κ (all tokens); Number of examples (cumulative): 500; Inter-annotator agreement: 0.42" role="graphics-symbol" aria-roledescription="point" transform="translate(0,232.00000000000003)" d="M2.739,0A2.739,2.739,0,1,1,-2.739,0A2.739,2.739,0,1,1,2.739,0" fill="#a00000" stroke-width="2" stroke-dasharray="1,0" opacity="1"/><path aria-label="variable: Cohen's κ (all tokens); Number of examples (cumulative): 1024; Inter-annotator agreement: 0.46" role="graphics-symbol" aria-roledescription="point" transform="translate(57.163636363636364,216)" d="M2.739,0A2.739,2.739,0,1,1,-2.739,0A2.739,2.739,0,1,1,2.739,0" fill="#a00000" stroke-width="2" stroke-dasharray="1,0" opacity="1"/><path aria-label="variable: Cohen's κ (all tokens); Number of examples (cumulative): 2113; Inter-annotator agreement: 0.63" role="graphics-symbol" aria-roledescription="point" transform="translate(175.96363636363637,148)" d="M2.739,0A2.739,2.739,0,1,1,-2.739,0A2.739,2.739,0,1,1,2.739,0" fill="#a00000" stroke-width="2" stroke-dasharray="1,0" opacity="1"/><path aria-label="variable: Cohen's κ (all tokens); Number of examples (cumulative): 3410; Inter-annotator agreement: 0.7" role="graphics-symbol" aria-roledescription="point" transform="translate(317.45454545454544,120.00000000000001)" d="M2.739,0A2.739,2.739,0,1,1,-2.739,0A2.739,2.739,0,1,1,2.739,0" fill="#a00000" stroke-width="2" stroke-dasharray="1,0" opacity="1"/><path aria-label="variable: Cohen's κ (all tokens); Number of examples (cumulative): 4096; Inter-annotator agreement: 0.77" role="graphics-symbol" aria-roledescription="point" transform="translate(392.2909090909091,92)" d="M2.739,0A2.739,2.739,0,1,1,-2.739,0A2.739,2.739,0,1,1,2.739,0" fill="#a00000" stroke-width="2" stroke-dasharray="1,0" opacity="1"/><path aria-label="variable: Cohen's κ (all tokens); Number of examples (cumulative): 6000; Inter-annotator agreement: 0.84" role="graphics-symbol" aria-roledescription="point" transform="translate(600,64.00000000000001)" d="M2.739,0A2.739,2.739,0,1,1,-2.739,0A2.739,2.739,0,1,1,2.739,0" fill="#a00000" stroke-width="2" stroke-dasharray="1,0" opacity="1"/><path aria-label="variable: Cohen's κ (annotated); Number of examples (cumulative): 500; Inter-annotator agreement: 0.25" role="graphics-symbol" aria-roledescription="point" transform="translate(0,300)" d="M2.739,0A2.739,2.739,0,1,1,-2.739,0A2.739,2.739,0,1,1,2.739,0" fill="#a00000" stroke-width="2" stroke-dasharray="4,2" opacity="1"/><path aria-label="variable: Cohen's κ (annotated); Number of examples (cumulative): 1024; Inter-annotator agreement: 0.29" role="graphics-symbol" aria-roledescription="point" transform="translate(57.163636363636364,284)" d="M2.739,0A2.739,2.739,0,1,1,-2.739,0A2.739,2.739,0,1,1,2.739,0" fill="#a00000" stroke-width="2" stroke-dasharray="4,2" opacity="1"/><path aria-label="variable: Cohen's κ (annotated); Number of examples (cumulative): 2113; Inter-annotator agreement: 0.42" role="graphics-symbol" aria-roledescription="point" transform="translate(175.96363636363637,232.00000000000003)" d="M2.739,0A2.739,2.739,0,1,1,-2.739,0A2.739,2.739,0,1,1,2.739,0" fill="#a00000" stroke-width="2" stroke-dasharray="4,2" opacity="1"/><path aria-label="variable: Cohen's κ (annotated); Number of examples (cumulative): 3410; Inter-annotator agreement: 0.53" role="graphics-symbol" aria-roledescription="point" transform="translate(317.45454545454544,188)" d="M2.739,0A2.739,2.739,0,1,1,-2.739,0A2.739,2.739,0,1,1,2.739,0" fill="#a00000" stroke-width="2" stroke-dasharray="4,2" opacity="1"/><path aria-label="variable: Cohen's κ (annotated); Number of examples (cumulative): 4096; Inter-annotator agreement: 0.6" role="graphics-symbol" aria-roledescription="point" transform="translate(392.2909090909091,160)" d="M2.739,0A2.739,2.739,0,1,1,-2.739,0A2.739,2.739,0,1,1,2.739,0" fill="#a00000" stroke-width="2" stroke-dasharray="4,2" opacity="1"/><path aria-label="variable: Cohen's κ (annotated); Number of examples (cumulative): 6000; Inter-annotator agreement: 0.67" role="graphics-symbol" aria-roledescription="point" transform="translate(600,131.99999999999997)" d="M2.739,0A2.739,2.739,0,1,1,-2.739,0A2.739,2.739,0,1,1,2.739,0" fill="#a00000" stroke-width="2" stroke-dasharray="4,2" opacity="1"/><path aria-label="variable: F1-score; Number of examples (cumulative): 500; Inter-annotator agreement: 0.64" role="graphics-symbol" aria-roledescription="point" transform="translate(0,144)" d="M2.739,0A2.739,2.739,0,1,1,-2.739,0A2.739,2.739,0,1,1,2.739,0" fill="#a00000" stroke-width="2" stroke-dasharray="2,1" opacity="1"/><path aria-label="variable: F1-score; Number of examples (cumulative): 1024; Inter-annotator agreement: 0.68" role="graphics-symbol" aria-roledescription="point" transform="translate(57.163636363636364,127.99999999999999)" d="M2.739,0A2.739,2.739,0,1,1,-2.739,0A2.739,2.739,0,1,1,2.739,0" fill="#a00000" stroke-width="2" stroke-dasharray="2,1" opacity="1"/><path aria-label="variable: F1-score; Number of examples (cumulative): 2113; Inter-annotator agreement: 0.8" role="graphics-symbol" aria-roledescription="point" transform="translate(175.96363636363637,79.99999999999999)" d="M2.739,0A2.739,2.739,0,1,1,-2.739,0A2.739,2.739,0,1,1,2.739,0" fill="#a00000" stroke-width="2" stroke-dasharray="2,1" opacity="1"/><path aria-label="variable: F1-score; Number of examples (cumulative): 3410; Inter-annotator agreement: 0.89" role="graphics-symbol" aria-roledescription="point" transform="translate(317.45454545454544,43.99999999999999)" d="M2.739,0A2.739,2.739,0,1,1,-2.739,0A2.739,2.739,0,1,1,2.739,0" fill="#a00000" stroke-width="2" stroke-dasharray="2,1" opacity="1"/><path aria-label="variable: F1-score; Number of examples (cumulative): 4096; Inter-annotator agreement: 0.92" role="graphics-symbol" aria-roledescription="point" transform="translate(392.2909090909091,31.999999999999986)" d="M2.739,0A2.739,2.739,0,1,1,-2.739,0A2.739,2.739,0,1,1,2.739,0" fill="#a00000" stroke-width="2" stroke-dasharray="2,1" opacity="1"/><path aria-label="variable: F1-score; Number of examples (cumulative): 6000; Inter-annotator agreement: 0.96" role="graphics-symbol" aria-roledescription="point" transform="translate(600,16.000000000000014)" d="M2.739,0A2.739,2.739,0,1,1,-2.739,0A2.739,2.739,0,1,1,2.739,0" fill="#a00000" stroke-width="2" stroke-dasharray="2,1" opacity="1"/></g><g class="mark-group role-legend" role="graphics-symbol" aria-roledescription="legend" aria-label="Symbol legend titled 'Metrics' for strokeDash with 3 values: Cohen's κ (all tokens), Cohen's κ (annotated), F1-score"><g transform="translate(440,310)"><path class="background" aria-hidden="true" d="M0,0h156v65h-156Z" pointer-events="none"/><g><g class="mark-group role-legend-entry"><g transform="translate(0,19)"><path class="background" aria-hidden="true" d="M0,0h0v0h0Z" pointer-events="none"/><g><g class="mark-group role-scope" role="graphics-object" aria-roledescription="group mark container"><g transform="translate(0,0)"><path class="background" aria-hidden="true" d="M0,0h155.3134765625v14h-155.3134765625Z" pointer-events="none" opacity="1"/><g><g class="mark-symbol role-legend-symbol" pointer-events="none"><path transform="translate(7,7)" d="M5,0A5,5,0,1,1,-5,0A5,5,0,1,1,5,0" stroke="#a00000" stroke-width="1.5" stroke-dasharray="1,0" opacity="1"/></g><g class="mark-text role-legend-label" pointer-events="none"><text text-anchor="start" transform="translate(18,11)" font-family="sans-serif" font-size="14px" fill="#000" opacity="1">Cohen's κ (all tokens)</text></g></g><path class="foreground" aria-hidden="true" d="" pointer-events="none" display="none"/></g><g transform="translate(0,16)"><path class="background" aria-hidden="true" d="M0,0h155.3134765625v14h-155.3134765625Z" pointer-events="none" opacity="1"/><g><g class="mark-symbol role-legend-symbol" pointer-events="none"><path transform="translate(7,7)" d="M5,0A5,5,0,1,1,-5,0A5,5,0,1,1,5,0" stroke="#a00000" stroke-width="1.5" stroke-dasharray="4,2" opacity="1"/></g><g class="mark-text role-legend-label" pointer-events="none"><text text-anchor="start" transform="translate(18,11)" font-family="sans-serif" font-size="14px" fill="#000" opacity="1">Cohen's κ (annotated)</text></g></g><path class="foreground" aria-hidden="true" d="" pointer-events="none" display="none"/></g><g transform="translate(0,32)"><path class="background" aria-hidden="true" d="M0,0h155.3134765625v14h-155.3134765625Z" pointer-events="none" opacity="1"/><g><g class="mark-symbol role-legend-symbol" pointer-events="none"><path transform="translate(7,7)" d="M5,0A5,5,0,1,1,-5,0A5,5,0,1,1,5,0" stroke="#a00000" stroke-width="1.5" stroke-dasharray="2,1" opacity="1"/></g><g class="mark-text role-legend-label" pointer-events="none"><text text-anchor="start" transform="translate(18,11)" font-family="sans-serif" font-size="14px" fill="#000" opacity="1">F1-score</text></g></g><path class="foreground" aria-hidden="true" d="" pointer-events="none" display="none"/></g></g></g><path class="foreground" aria-hidden="true" d="" pointer-events="none" display="none"/></g></g><g class="mark-text role-legend-title" pointer-events="none"><text text-anchor="start" transform="translate(0,11)" font-family="sans-serif" font-size="14px" font-weight="bold" fill="#000" opacity="1">Metrics</text></g></g><path class="foreground" aria-hidden="true" d="" pointer-events="none" display="none"/></g></g><g class="mark-group role-title"><g transform="translate(300,-31)"><path class="background" aria-hidden="true" d="M0,0h0v0h0Z" pointer-events="none"/><g><g class="mark-text role-title-text" role="graphics-symbol" aria-roledescription="title" aria-label="Title text 'Inter-annotator agreement (IAA) grew after each annotation round'" pointer-events="none"><text text-anchor="middle" transform="translate(0,16)" font-family="CMU Sans Serif" font-size="20px" font-weight="bold" fill="#000" opacity="1">Inter-annotator agreement (IAA) grew after each annotation round</text></g></g><path class="foreground" aria-hidden="true" d="" pointer-events="none" display="none"/></g></g></g><path class="foreground" aria-hidden="true" d="" display="none"/></g></g></g></svg>